{"asset":{"version":"2.0","generator":"Blockbench 4.9.4 glTF exporter"},"scenes":[{"nodes":[20],"name":"blockbench_export"}],"scene":0,"nodes":[{"translation":[0,-0.375,0],"name":"1","mesh":0},{"name":"1","children":[0]},{"translation":[0,-0.53125,0],"name":"2","mesh":1},{"translation":[0,-0.53125,0],"name":"2","mesh":2},{"translation":[0,0.15625,0],"name":"2","children":[2,3]},{"name":"main","children":[1,4]},{"translation":[0,-0.1875,0],"name":"1frame","mesh":3},{"translation":[0,-0.1875,0],"name":"1frame","mesh":4},{"translation":[0,-0.0625,0],"name":"1frame","children":[6,7]},{"translation":[0,-0.1875,0],"name":"2frame2","mesh":5},{"translation":[0,-0.1875,0],"name":"2frame2","mesh":6},{"translation":[0,-0.0625,0],"name":"2frame2","children":[9,10]},{"translation":[0,-0.1875,0],"name":"3frame3","mesh":7},{"translation":[0,-0.1875,0],"name":"3frame3","mesh":8},{"translation":[0,-0.0625,0],"name":"3frame3","children":[12,13]},{"translation":[0,-0.1875,0],"name":"4frame4","mesh":9},{"translation":[0,-0.1875,0],"name":"4frame4","mesh":10},{"translation":[0,-0.0625,0],"name":"4frame4","children":[15,16]},{"translation":[0,-0.125,0],"name":"aspi","children":[8,11,14,17]},{"translation":[0,-0.0625,0],"name":"soucoupe","children":[5,18]},{"children":[19]}],"bufferViews":[{"buffer":0,"byteOffset":0,"byteLength":288,"target":34962,"byteStride":12},{"buffer":0,"byteOffset":288,"byteLength":288,"target":34962,"byteStride":12},{"buffer":0,"byteOffset":576,"byteLength":192,"target":34962,"byteStride":8},{"buffer":0,"byteOffset":768,"byteLength":72,"target":34963},{"buffer":0,"byteOffset":840,"byteLength":288,"target":34962,"byteStride":12},{"buffer":0,"byteOffset":1128,"byteLength":288,"target":34962,"byteStride":12},{"buffer":0,"byteOffset":1416,"byteLength":192,"target":34962,"byteStride":8},{"buffer":0,"byteOffset":1608,"byteLength":72,"target":34963},{"buffer":0,"byteOffset":1680,"byteLength":288,"target":34962,"byteStride":12},{"buffer":0,"byteOffset":1968,"byteLength":288,"target":34962,"byteStride":12},{"buffer":0,"byteOffset":2256,"byteLength":192,"target":34962,"byteStride":8},{"buffer":0,"byteOffset":2448,"byteLength":72,"target":34963},{"buffer":0,"byteOffset":2520,"byteLength":288,"target":34962,"byteStride":12},{"buffer":0,"byteOffset":2808,"byteLength":288,"target":34962,"byteStride":12},{"buffer":0,"byteOffset":3096,"byteLength":192,"target":34962,"byteStride":8},{"buffer":0,"byteOffset":3288,"byteLength":72,"target":34963},{"buffer":0,"byteOffset":3360,"byteLength":288,"target":34962,"byteStride":12},{"buffer":0,"byteOffset":3648,"byteLength":288,"target":34962,"byteStride":12},{"buffer":0,"byteOffset":3936,"byteLength":192,"target":34962,"byteStride":8},{"buffer":0,"byteOffset":4128,"byteLength":72,"target":34963},{"buffer":0,"byteOffset":4200,"byteLength":288,"target":34962,"byteStride":12},{"buffer":0,"byteOffset":4488,"byteLength":288,"target":34962,"byteStride":12},{"buffer":0,"byteOffset":4776,"byteLength":192,"target":34962,"byteStride":8},{"buffer":0,"byteOffset":4968,"byteLength":72,"target":34963},{"buffer":0,"byteOffset":5040,"byteLength":288,"target":34962,"byteStride":12},{"buffer":0,"byteOffset":5328,"byteLength":288,"target":34962,"byteStride":12},{"buffer":0,"byteOffset":5616,"byteLength":192,"target":34962,"byteStride":8},{"buffer":0,"byteOffset":5808,"byteLength":72,"target":34963},{"buffer":0,"byteOffset":5880,"byteLength":288,"target":34962,"byteStride":12},{"buffer":0,"byteOffset":6168,"byteLength":288,"target":34962,"byteStride":12},{"buffer":0,"byteOffset":6456,"byteLength":192,"target":34962,"byteStride":8},{"buffer":0,"byteOffset":6648,"byteLength":72,"target":34963},{"buffer":0,"byteOffset":6720,"byteLength":288,"target":34962,"byteStride":12},{"buffer":0,"byteOffset":7008,"byteLength":288,"target":34962,"byteStride":12},{"buffer":0,"byteOffset":7296,"byteLength":192,"target":34962,"byteStride":8},{"buffer":0,"byteOffset":7488,"byteLength":72,"target":34963},{"buffer":0,"byteOffset":7560,"byteLength":288,"target":34962,"byteStride":12},{"buffer":0,"byteOffset":7848,"byteLength":288,"target":34962,"byteStride":12},{"buffer":0,"byteOffset":8136,"byteLength":192,"target":34962,"byteStride":8},{"buffer":0,"byteOffset":8328,"byteLength":72,"target":34963},{"buffer":0,"byteOffset":8400,"byteLength":288,"target":34962,"byteStride":12},{"buffer":0,"byteOffset":8688,"byteLength":288,"target":34962,"byteStride":12},{"buffer":0,"byteOffset":8976,"byteLength":192,"target":34962,"byteStride":8},{"buffer":0,"byteOffset":9168,"byteLength":72,"target":34963},{"buffer":0,"byteOffset":9240,"byteLength":16},{"buffer":0,"byteOffset":9256,"byteLength":64},{"buffer":0,"byteOffset":9320,"byteLength":12},{"buffer":0,"byteOffset":9332,"byteLength":36},{"buffer":0,"byteOffset":9368,"byteLength":4},{"buffer":0,"byteOffset":9372,"byteLength":12},{"buffer":0,"byteOffset":9384,"byteLength":16},{"buffer":0,"byteOffset":9400,"byteLength":64},{"buffer":0,"byteOffset":9464,"byteLength":76},{"buffer":0,"byteOffset":9540,"byteLength":228},{"buffer":0,"byteOffset":9768,"byteLength":4},{"buffer":0,"byteOffset":9772,"byteLength":12},{"buffer":0,"byteOffset":9784,"byteLength":16},{"buffer":0,"byteOffset":9800,"byteLength":64},{"buffer":0,"byteOffset":9864,"byteLength":4},{"buffer":0,"byteOffset":9868,"byteLength":16},{"buffer":0,"byteOffset":9884,"byteLength":12},{"buffer":0,"byteOffset":9896,"byteLength":36},{"buffer":0,"byteOffset":9932,"byteLength":4},{"buffer":0,"byteOffset":9936,"byteLength":12},{"buffer":0,"byteOffset":9948,"byteLength":16},{"buffer":0,"byteOffset":9964,"byteLength":64},{"buffer":0,"byteOffset":10028,"byteLength":4},{"buffer":0,"byteOffset":10032,"byteLength":16},{"buffer":0,"byteOffset":10048,"byteLength":12},{"buffer":0,"byteOffset":10060,"byteLength":36},{"buffer":0,"byteOffset":10096,"byteLength":4},{"buffer":0,"byteOffset":10100,"byteLength":12},{"buffer":0,"byteOffset":10112,"byteLength":536},{"buffer":0,"byteOffset":10648,"byteLength":2144},{"buffer":0,"byteOffset":12792,"byteLength":40},{"buffer":0,"byteOffset":12832,"byteLength":120},{"buffer":0,"byteOffset":12952,"byteLength":20},{"buffer":0,"byteOffset":12972,"byteLength":60},{"buffer":0,"byteOffset":13032,"byteLength":112},{"buffer":0,"byteOffset":13144,"byteLength":336},{"buffer":0,"byteOffset":13480,"byteLength":112},{"buffer":0,"byteOffset":13592,"byteLength":336},{"buffer":0,"byteOffset":13928,"byteLength":112},{"buffer":0,"byteOffset":14040,"byteLength":336},{"buffer":0,"byteOffset":14376,"byteLength":112},{"buffer":0,"byteOffset":14488,"byteLength":336}],"buffers":[{"byteLength":14824,"uri":"data:application/octet-stream;base64,"}],"accessors":[{"bufferView":0,"componentType":5126,"count":24,"max":[0.125,0.625,0.125],"min":[-0.125,0.4375,-0.125],"type":"VEC3"},{"bufferView":1,"componentType":5126,"count":24,"max":[1,1,1],"min":[-1,-1,-1],"type":"VEC3"},{"bufferView":2,"componentType":5126,"count":24,"max":[0.3123779296875,0.0545654296875],"min":[0.1876220703125,0.0001220703125],"type":"VEC2"},{"bufferView":3,"componentType":5123,"count":36,"max":[23],"min":[0],"type":"SCALAR"},{"bufferView":4,"componentType":5126,"count":24,"max":[0.1875,0.375,0.1875],"min":[-0.1875,0.3125,-0.1875],"type":"VEC3"},{"bufferView":5,"componentType":5126,"count":24,"max":[1,1,1],"min":[-1,-1,-1],"type":"VEC3"},{"bufferView":6,"componentType":5126,"count":24,"max":[0.1873779296875,0.1248779296875],"min":[0.0001220703125,0.0704345703125],"type":"VEC2"},{"bufferView":7,"componentType":5123,"count":36,"max":[23],"min":[0],"type":"SCALAR"},{"bufferView":8,"componentType":5126,"count":24,"max":[0.25,0.4375,0.25],"min":[-0.25,0.375,-0.25],"type":"VEC3"},{"bufferView":9,"componentType":5126,"count":24,"max":[1,1,1],"min":[-1,-1,-1],"type":"VEC3"},{"bufferView":10,"componentType":5126,"count":24,"max":[0.2498779296875,0.0701904296875],"min":[0.0001220703125,0.0001220703125],"type":"VEC2"},{"bufferView":11,"componentType":5123,"count":36,"max":[23],"min":[0],"type":"SCALAR"},{"bufferView":12,"componentType":5126,"count":24,"max":[0.09375,0.3125,0.09375],"min":[-0.09375,0.0625,-0.09375],"type":"VEC3"},{"bufferView":13,"componentType":5126,"count":24,"max":[1,1,1],"min":[-1,-1,-1],"type":"VEC3"},{"bufferView":14,"componentType":5126,"count":24,"max":[0.0936279296875,0.1795654296875],"min":[0.0001220703125,0.1251220703125],"type":"VEC2"},{"bufferView":15,"componentType":5123,"count":36,"max":[23],"min":[0],"type":"SCALAR"},{"bufferView":16,"componentType":5126,"count":24,"max":[0.125,0.3125,0.125],"min":[-0.125,0.0625,-0.125],"type":"VEC3"},{"bufferView":17,"componentType":5126,"count":24,"max":[1,1,1],"min":[-1,-1,-1],"type":"VEC3"},{"bufferView":18,"componentType":5126,"count":24,"max":[0.2186279296875,0.1873779296875],"min":[0.0938720703125,0.1251220703125],"type":"VEC2"},{"bufferView":19,"componentType":5123,"count":36,"max":[23],"min":[0],"type":"SCALAR"},{"bufferView":20,"componentType":5126,"count":24,"max":[0.09375,0.3125,0.09375],"min":[-0.09375,0.0625,-0.09375],"type":"VEC3"},{"bufferView":21,"componentType":5126,"count":24,"max":[1,1,1],"min":[-1,-1,-1],"type":"VEC3"},{"bufferView":22,"componentType":5126,"count":24,"max":[0.0936279296875,0.2420654296875],"min":[0.0001220703125,0.1876220703125],"type":"VEC2"},{"bufferView":23,"componentType":5123,"count":36,"max":[23],"min":[0],"type":"SCALAR"},{"bufferView":24,"componentType":5126,"count":24,"max":[0.125,0.3125,0.125],"min":[-0.125,0.0625,-0.125],"type":"VEC3"},{"bufferView":25,"componentType":5126,"count":24,"max":[1,1,1],"min":[-1,-1,-1],"type":"VEC3"},{"bufferView":26,"componentType":5126,"count":24,"max":[0.2186279296875,0.2498779296875],"min":[0.0938720703125,0.1876220703125],"type":"VEC2"},{"bufferView":27,"componentType":5123,"count":36,"max":[23],"min":[0],"type":"SCALAR"},{"bufferView":28,"componentType":5126,"count":24,"max":[0.09375,0.3125,0.09375],"min":[-0.09375,0.0625,-0.09375],"type":"VEC3"},{"bufferView":29,"componentType":5126,"count":24,"max":[1,1,1],"min":[-1,-1,-1],"type":"VEC3"},{"bufferView":30,"componentType":5126,"count":24,"max":[0.0936279296875,0.3045654296875],"min":[0.0001220703125,0.2501220703125],"type":"VEC2"},{"bufferView":31,"componentType":5123,"count":36,"max":[23],"min":[0],"type":"SCALAR"},{"bufferView":32,"componentType":5126,"count":24,"max":[0.125,0.3125,0.125],"min":[-0.125,0.0625,-0.125],"type":"VEC3"},{"bufferView":33,"componentType":5126,"count":24,"max":[1,1,1],"min":[-1,-1,-1],"type":"VEC3"},{"bufferView":34,"componentType":5126,"count":24,"max":[0.2186279296875,0.3123779296875],"min":[0.0938720703125,0.2501220703125],"type":"VEC2"},{"bufferView":35,"componentType":5123,"count":36,"max":[23],"min":[0],"type":"SCALAR"},{"bufferView":36,"componentType":5126,"count":24,"max":[0.09375,0.3125,0.09375],"min":[-0.09375,0.0625,-0.09375],"type":"VEC3"},{"bufferView":37,"componentType":5126,"count":24,"max":[1,1,1],"min":[-1,-1,-1],"type":"VEC3"},{"bufferView":38,"componentType":5126,"count":24,"max":[0.0936279296875,0.3670654296875],"min":[0.0001220703125,0.3126220703125],"type":"VEC2"},{"bufferView":39,"componentType":5123,"count":36,"max":[23],"min":[0],"type":"SCALAR"},{"bufferView":40,"componentType":5126,"count":24,"max":[0.125,0.3125,0.125],"min":[-0.125,0.0625,-0.125],"type":"VEC3"},{"bufferView":41,"componentType":5126,"count":24,"max":[1,1,1],"min":[-1,-1,-1],"type":"VEC3"},{"bufferView":42,"componentType":5126,"count":24,"max":[0.2186279296875,0.3748779296875],"min":[0.0938720703125,0.3126220703125],"type":"VEC2"},{"bufferView":43,"componentType":5123,"count":36,"max":[23],"min":[0],"type":"SCALAR"},{"bufferView":44,"componentType":5126,"count":4,"max":[1.5],"min":[0],"type":"SCALAR"},{"bufferView":45,"componentType":5126,"count":4,"max":[0,0.8660253882408142,0,1],"min":[0,0,0,-1],"type":"VEC4"},{"bufferView":46,"componentType":5126,"count":3,"max":[1.5],"min":[0],"type":"SCALAR"},{"bufferView":47,"componentType":5126,"count":3,"max":[0,0.0625,0],"min":[0,-0.0625,0],"type":"VEC3"},{"bufferView":48,"componentType":5126,"count":1,"max":[0],"min":[0],"type":"SCALAR"},{"bufferView":49,"componentType":5126,"count":1,"max":[0,0,0],"min":[0,0,0],"type":"VEC3"},{"bufferView":50,"componentType":5126,"count":4,"max":[1.5],"min":[0],"type":"SCALAR"},{"bufferView":51,"componentType":5126,"count":4,"max":[0,0.8660253882408142,0,1],"min":[0,0,0,-1],"type":"VEC4"},{"bufferView":52,"componentType":5126,"count":19,"max":[1.5],"min":[0],"type":"SCALAR"},{"bufferView":53,"componentType":5126,"count":19,"max":[0.015625,0.328125,0],"min":[-0.015625,0.3125,0],"type":"VEC3"},{"bufferView":54,"componentType":5126,"count":1,"max":[0],"min":[0],"type":"SCALAR"},{"bufferView":55,"componentType":5126,"count":1,"max":[0,0,0],"min":[0,0,0],"type":"VEC3"},{"bufferView":56,"componentType":5126,"count":4,"max":[1.5],"min":[0],"type":"SCALAR"},{"bufferView":57,"componentType":5126,"count":4,"max":[0,0.8660253882408142,0,1],"min":[0,0,0,-1],"type":"VEC4"},{"bufferView":58,"componentType":5126,"count":1,"max":[0],"min":[0],"type":"SCALAR"},{"bufferView":59,"componentType":5126,"count":1,"max":[-0.1736481785774231,0,0,0.9848077297210693],"min":[-0.1736481785774231,0,0,0.9848077297210693],"type":"VEC4"},{"bufferView":60,"componentType":5126,"count":3,"max":[1.5],"min":[0],"type":"SCALAR"},{"bufferView":61,"componentType":5126,"count":3,"max":[0,0.0625,0],"min":[0,-0.0625,0],"type":"VEC3"},{"bufferView":62,"componentType":5126,"count":1,"max":[0],"min":[0],"type":"SCALAR"},{"bufferView":63,"componentType":5126,"count":1,"max":[0,0,0],"min":[0,0,0],"type":"VEC3"},{"bufferView":64,"componentType":5126,"count":4,"max":[1.5],"min":[0],"type":"SCALAR"},{"bufferView":65,"componentType":5126,"count":4,"max":[0,0.8660253882408142,0,1],"min":[0,0,0,-1],"type":"VEC4"},{"bufferView":66,"componentType":5126,"count":1,"max":[0],"min":[0],"type":"SCALAR"},{"bufferView":67,"componentType":5126,"count":1,"max":[-0.1736481785774231,0,0,0.9848077297210693],"min":[-0.1736481785774231,0,0,0.9848077297210693],"type":"VEC4"},{"bufferView":68,"componentType":5126,"count":3,"max":[1.5],"min":[0],"type":"SCALAR"},{"bufferView":69,"componentType":5126,"count":3,"max":[0,0.0625,0],"min":[0,-0.0625,0],"type":"VEC3"},{"bufferView":70,"componentType":5126,"count":1,"max":[0],"min":[0],"type":"SCALAR"},{"bufferView":71,"componentType":5126,"count":1,"max":[0,0,0],"min":[0,0,0],"type":"VEC3"},{"bufferView":72,"componentType":5126,"count":134,"max":[7.125],"min":[0],"type":"SCALAR"},{"bufferView":73,"componentType":5126,"count":134,"max":[0,1,0,1],"min":[0,-1,0,-1],"type":"VEC4"},{"bufferView":74,"componentType":5126,"count":10,"max":[7],"min":[0],"type":"SCALAR"},{"bufferView":75,"componentType":5126,"count":10,"max":[0,0.3125,0],"min":[0,-0.0625,0],"type":"VEC3"},{"bufferView":76,"componentType":5126,"count":5,"max":[6.3333001136779785],"min":[0],"type":"SCALAR"},{"bufferView":77,"componentType":5126,"count":5,"max":[1,1,1],"min":[0,0,0],"type":"VEC3"},{"bufferView":78,"componentType":5126,"count":28,"max":[6.1666998863220215],"min":[0.875],"type":"SCALAR"},{"bufferView":79,"componentType":5126,"count":28,"max":[1,1,1],"min":[0,0,0],"type":"VEC3"},{"bufferView":80,"componentType":5126,"count":28,"max":[6.375],"min":[1.083299994468689],"type":"SCALAR"},{"bufferView":81,"componentType":5126,"count":28,"max":[1,1,1],"min":[0,0,0],"type":"VEC3"},{"bufferView":82,"componentType":5126,"count":28,"max":[6.5833001136779785],"min":[1.291700005531311],"type":"SCALAR"},{"bufferView":83,"componentType":5126,"count":28,"max":[1,1,1],"min":[0,0,0],"type":"VEC3"},{"bufferView":84,"componentType":5126,"count":28,"max":[6.7916998863220215],"min":[1.5],"type":"SCALAR"},{"bufferView":85,"componentType":5126,"count":28,"max":[1,1,1],"min":[0,0,0],"type":"VEC3"}],"materials":[{"pbrMetallicRoughness":{"metallicFactor":0,"roughnessFactor":1,"baseColorTexture":{"index":0}},"alphaMode":"MASK","alphaCutoff":0.05,"doubleSided":true}],"textures":[{"sampler":0,"source":0}],"samplers":[{"magFilter":9728,"minFilter":9728,"wrapS":33071,"wrapT":33071}],"images":[{"mimeType":"image/png","uri":"data:image/png;base64,"}],"meshes":[{"primitives":[{"mode":4,"attributes":{"POSITION":0,"NORMAL":1,"TEXCOORD_0":2},"indices":3,"material":0}]},{"primitives":[{"mode":4,"attributes":{"POSITION":4,"NORMAL":5,"TEXCOORD_0":6},"indices":7,"material":0}]},{"primitives":[{"mode":4,"attributes":{"POSITION":8,"NORMAL":9,"TEXCOORD_0":10},"indices":11,"material":0}]},{"primitives":[{"mode":4,"attributes":{"POSITION":12,"NORMAL":13,"TEXCOORD_0":14},"indices":15,"material":0}]},{"primitives":[{"mode":4,"attributes":{"POSITION":16,"NORMAL":17,"TEXCOORD_0":18},"indices":19,"material":0}]},{"primitives":[{"mode":4,"attributes":{"POSITION":20,"NORMAL":21,"TEXCOORD_0":22},"indices":23,"material":0}]},{"primitives":[{"mode":4,"attributes":{"POSITION":24,"NORMAL":25,"TEXCOORD_0":26},"indices":27,"material":0}]},{"primitives":[{"mode":4,"attributes":{"POSITION":28,"NORMAL":29,"TEXCOORD_0":30},"indices":31,"material":0}]},{"primitives":[{"mode":4,"attributes":{"POSITION":32,"NORMAL":33,"TEXCOORD_0":34},"indices":35,"material":0}]},{"primitives":[{"mode":4,"attributes":{"POSITION":36,"NORMAL":37,"TEXCOORD_0":38},"indices":39,"material":0}]},{"primitives":[{"mode":4,"attributes":{"POSITION":40,"NORMAL":41,"TEXCOORD_0":42},"indices":43,"material":0}]}],"animations":[{"name":"idle","samplers":[{"input":44,"output":45,"interpolation":"LINEAR"},{"input":46,"output":47,"interpolation":"LINEAR"},{"input":48,"output":49,"interpolation":"LINEAR"}],"channels":[{"sampler":0,"target":{"node":4,"path":"rotation"}},{"sampler":1,"target":{"node":19,"path":"translation"}},{"sampler":2,"target":{"node":18,"path":"scale"}}]},{"name":"fall","samplers":[{"input":50,"output":51,"interpolation":"LINEAR"},{"input":52,"output":53,"interpolation":"LINEAR"},{"input":54,"output":55,"interpolation":"LINEAR"}],"channels":[{"sampler":0,"target":{"node":4,"path":"rotation"}},{"sampler":1,"target":{"node":19,"path":"translation"}},{"sampler":2,"target":{"node":18,"path":"scale"}}]},{"name":"walk","samplers":[{"input":56,"output":57,"interpolation":"LINEAR"},{"input":58,"output":59,"interpolation":"LINEAR"},{"input":60,"output":61,"interpolation":"LINEAR"},{"input":62,"output":63,"interpolation":"LINEAR"}],"channels":[{"sampler":0,"target":{"node":4,"path":"rotation"}},{"sampler":1,"target":{"node":19,"path":"rotation"}},{"sampler":2,"target":{"node":19,"path":"translation"}},{"sampler":3,"target":{"node":18,"path":"scale"}}]},{"name":"swim","samplers":[{"input":64,"output":65,"interpolation":"LINEAR"},{"input":66,"output":67,"interpolation":"LINEAR"},{"input":68,"output":69,"interpolation":"LINEAR"},{"input":70,"output":71,"interpolation":"LINEAR"}],"channels":[{"sampler":0,"target":{"node":4,"path":"rotation"}},{"sampler":1,"target":{"node":19,"path":"rotation"}},{"sampler":2,"target":{"node":19,"path":"translation"}},{"sampler":3,"target":{"node":18,"path":"scale"}}]},{"name":"skill","samplers":[{"input":72,"output":73,"interpolation":"LINEAR"},{"input":74,"output":75,"interpolation":"LINEAR"},{"input":76,"output":77,"interpolation":"LINEAR"},{"input":78,"output":79,"interpolation":"LINEAR"},{"input":80,"output":81,"interpolation":"LINEAR"},{"input":82,"output":83,"interpolation":"LINEAR"},{"input":84,"output":85,"interpolation":"LINEAR"}],"channels":[{"sampler":0,"target":{"node":4,"path":"rotation"}},{"sampler":1,"target":{"node":19,"path":"translation"}},{"sampler":2,"target":{"node":18,"path":"scale"}},{"sampler":3,"target":{"node":8,"path":"scale"}},{"sampler":4,"target":{"node":11,"path":"scale"}},{"sampler":5,"target":{"node":14,"path":"scale"}},{"sampler":6,"target":{"node":17,"path":"scale"}}]}]}