{"asset":{"version":"2.0","generator":"Blockbench 4.9.4 glTF exporter"},"scenes":[{"nodes":[17],"name":"blockbench_export"}],"scene":0,"nodes":[{"name":"bone","mesh":0},{"name":"bone","mesh":1},{"name":"bone","mesh":2},{"rotation":[0,0,0.1521233861899167,0.9883615104677607],"name":"bone2","mesh":3},{"translation":[-0.3125,0.1875,0],"name":"bone2","children":[3]},{"rotation":[0,0,-0.1521233861899167,0.9883615104677607],"name":"bone3","mesh":4},{"translation":[0.3125,0.1875,0],"name":"bone3","children":[5]},{"rotation":[0.10886687485196457,0,0,0.9940563382223196],"name":"bone4","mesh":5},{"translation":[0,0.1875,0.4375],"name":"bone4","children":[7]},{"translation":[0,-0.25,0],"name":"bone","children":[0,1,2,4,6,8]},{"translation":[0,-0.6875,0.0625],"name":"bone6","mesh":6},{"translation":[0,-0.5,0.0625],"name":"bone5","mesh":7},{"translation":[0,-0.5,0.0625],"name":"bone5","mesh":8},{"translation":[0,-0.5,0.0625],"name":"bone7","mesh":9},{"name":"bone7","children":[13]},{"translation":[0,-0.1875,0],"name":"bone5","children":[11,12,14]},{"translation":[0,0.4375,-0.0625],"name":"bone6","children":[10,15]},{"children":[9,16]}],"bufferViews":[{"buffer":0,"byteOffset":0,"byteLength":288,"target":34962,"byteStride":12},{"buffer":0,"byteOffset":288,"byteLength":288,"target":34962,"byteStride":12},{"buffer":0,"byteOffset":576,"byteLength":192,"target":34962,"byteStride":8},{"buffer":0,"byteOffset":768,"byteLength":72,"target":34963},{"buffer":0,"byteOffset":840,"byteLength":288,"target":34962,"byteStride":12},{"buffer":0,"byteOffset":1128,"byteLength":288,"target":34962,"byteStride":12},{"buffer":0,"byteOffset":1416,"byteLength":192,"target":34962,"byteStride":8},{"buffer":0,"byteOffset":1608,"byteLength":72,"target":34963},{"buffer":0,"byteOffset":1680,"byteLength":288,"target":34962,"byteStride":12},{"buffer":0,"byteOffset":1968,"byteLength":288,"target":34962,"byteStride":12},{"buffer":0,"byteOffset":2256,"byteLength":192,"target":34962,"byteStride":8},{"buffer":0,"byteOffset":2448,"byteLength":72,"target":34963},{"buffer":0,"byteOffset":2520,"byteLength":288,"target":34962,"byteStride":12},{"buffer":0,"byteOffset":2808,"byteLength":288,"target":34962,"byteStride":12},{"buffer":0,"byteOffset":3096,"byteLength":192,"target":34962,"byteStride":8},{"buffer":0,"byteOffset":3288,"byteLength":72,"target":34963},{"buffer":0,"byteOffset":3360,"byteLength":288,"target":34962,"byteStride":12},{"buffer":0,"byteOffset":3648,"byteLength":288,"target":34962,"byteStride":12},{"buffer":0,"byteOffset":3936,"byteLength":192,"target":34962,"byteStride":8},{"buffer":0,"byteOffset":4128,"byteLength":72,"target":34963},{"buffer":0,"byteOffset":4200,"byteLength":288,"target":34962,"byteStride":12},{"buffer":0,"byteOffset":4488,"byteLength":288,"target":34962,"byteStride":12},{"buffer":0,"byteOffset":4776,"byteLength":192,"target":34962,"byteStride":8},{"buffer":0,"byteOffset":4968,"byteLength":72,"target":34963},{"buffer":0,"byteOffset":5040,"byteLength":288,"target":34962,"byteStride":12},{"buffer":0,"byteOffset":5328,"byteLength":288,"target":34962,"byteStride":12},{"buffer":0,"byteOffset":5616,"byteLength":192,"target":34962,"byteStride":8},{"buffer":0,"byteOffset":5808,"byteLength":72,"target":34963},{"buffer":0,"byteOffset":5880,"byteLength":288,"target":34962,"byteStride":12},{"buffer":0,"byteOffset":6168,"byteLength":288,"target":34962,"byteStride":12},{"buffer":0,"byteOffset":6456,"byteLength":192,"target":34962,"byteStride":8},{"buffer":0,"byteOffset":6648,"byteLength":72,"target":34963},{"buffer":0,"byteOffset":6720,"byteLength":288,"target":34962,"byteStride":12},{"buffer":0,"byteOffset":7008,"byteLength":288,"target":34962,"byteStride":12},{"buffer":0,"byteOffset":7296,"byteLength":192,"target":34962,"byteStride":8},{"buffer":0,"byteOffset":7488,"byteLength":72,"target":34963},{"buffer":0,"byteOffset":7560,"byteLength":288,"target":34962,"byteStride":12},{"buffer":0,"byteOffset":7848,"byteLength":288,"target":34962,"byteStride":12},{"buffer":0,"byteOffset":8136,"byteLength":192,"target":34962,"byteStride":8},{"buffer":0,"byteOffset":8328,"byteLength":72,"target":34963},{"buffer":0,"byteOffset":8400,"byteLength":12},{"buffer":0,"byteOffset":8412,"byteLength":36},{"buffer":0,"byteOffset":8448,"byteLength":12},{"buffer":0,"byteOffset":8460,"byteLength":48},{"buffer":0,"byteOffset":8508,"byteLength":12},{"buffer":0,"byteOffset":8520,"byteLength":48},{"buffer":0,"byteOffset":8568,"byteLength":12},{"buffer":0,"byteOffset":8580,"byteLength":48},{"buffer":0,"byteOffset":8628,"byteLength":12},{"buffer":0,"byteOffset":8640,"byteLength":36},{"buffer":0,"byteOffset":8676,"byteLength":12},{"buffer":0,"byteOffset":8688,"byteLength":36},{"buffer":0,"byteOffset":8724,"byteLength":12},{"buffer":0,"byteOffset":8736,"byteLength":36},{"buffer":0,"byteOffset":8772,"byteLength":12},{"buffer":0,"byteOffset":8784,"byteLength":36},{"buffer":0,"byteOffset":8820,"byteLength":12},{"buffer":0,"byteOffset":8832,"byteLength":36},{"buffer":0,"byteOffset":8868,"byteLength":4},{"buffer":0,"byteOffset":8872,"byteLength":12},{"buffer":0,"byteOffset":8884,"byteLength":12},{"buffer":0,"byteOffset":8896,"byteLength":48},{"buffer":0,"byteOffset":8944,"byteLength":4},{"buffer":0,"byteOffset":8948,"byteLength":12},{"buffer":0,"byteOffset":8960,"byteLength":12},{"buffer":0,"byteOffset":8972,"byteLength":48},{"buffer":0,"byteOffset":9020,"byteLength":12},{"buffer":0,"byteOffset":9032,"byteLength":48},{"buffer":0,"byteOffset":9080,"byteLength":12},{"buffer":0,"byteOffset":9092,"byteLength":48},{"buffer":0,"byteOffset":9140,"byteLength":8},{"buffer":0,"byteOffset":9148,"byteLength":24},{"buffer":0,"byteOffset":9172,"byteLength":4},{"buffer":0,"byteOffset":9176,"byteLength":12},{"buffer":0,"byteOffset":9188,"byteLength":12},{"buffer":0,"byteOffset":9200,"byteLength":36},{"buffer":0,"byteOffset":9236,"byteLength":12},{"buffer":0,"byteOffset":9248,"byteLength":48},{"buffer":0,"byteOffset":9296,"byteLength":12},{"buffer":0,"byteOffset":9308,"byteLength":36},{"buffer":0,"byteOffset":9344,"byteLength":12},{"buffer":0,"byteOffset":9356,"byteLength":48},{"buffer":0,"byteOffset":9404,"byteLength":12},{"buffer":0,"byteOffset":9416,"byteLength":36},{"buffer":0,"byteOffset":9452,"byteLength":12},{"buffer":0,"byteOffset":9464,"byteLength":48},{"buffer":0,"byteOffset":9512,"byteLength":12},{"buffer":0,"byteOffset":9524,"byteLength":36},{"buffer":0,"byteOffset":9560,"byteLength":12},{"buffer":0,"byteOffset":9572,"byteLength":36},{"buffer":0,"byteOffset":9608,"byteLength":16},{"buffer":0,"byteOffset":9624,"byteLength":48},{"buffer":0,"byteOffset":9672,"byteLength":16},{"buffer":0,"byteOffset":9688,"byteLength":48}],"buffers":[{"byteLength":9736,"uri":"data:application/octet-stream;base64,"}],"accessors":[{"bufferView":0,"componentType":5126,"count":24,"max":[0.3125,0.375,0.1875],"min":[-0.3125,0,-0.375],"type":"VEC3"},{"bufferView":1,"componentType":5126,"count":24,"max":[1,1,1],"min":[-1,-1,-1],"type":"VEC3"},{"bufferView":2,"componentType":5126,"count":24,"max":[0.593505859375,0.234130859375],"min":[0.000244140625,0.000244140625],"type":"VEC2"},{"bufferView":3,"componentType":5123,"count":36,"max":[23],"min":[0],"type":"SCALAR"},{"bufferView":4,"componentType":5126,"count":24,"max":[0.125,0.25,-0.375],"min":[-0.125,0,-0.5],"type":"VEC3"},{"bufferView":5,"componentType":5126,"count":24,"max":[1,1,1],"min":[-1,-1,-1],"type":"VEC3"},{"bufferView":6,"componentType":5126,"count":24,"max":[0.499755859375,0.468505859375],"min":[0.312744140625,0.375244140625],"type":"VEC2"},{"bufferView":7,"componentType":5123,"count":36,"max":[23],"min":[0],"type":"SCALAR"},{"bufferView":8,"componentType":5126,"count":24,"max":[0.1875,0.25,0.4375],"min":[-0.1875,0,0.1875],"type":"VEC3"},{"bufferView":9,"componentType":5126,"count":24,"max":[1,1,1],"min":[-1,-1,-1],"type":"VEC3"},{"bufferView":10,"componentType":5126,"count":24,"max":[0.312255859375,0.468505859375],"min":[0.000244140625,0.343994140625],"type":"VEC2"},{"bufferView":11,"componentType":5123,"count":36,"max":[23],"min":[0],"type":"SCALAR"},{"bufferView":12,"componentType":5126,"count":24,"max":[0,0,0.1875],"min":[-0.25,-0.125,-0.1875],"type":"VEC3"},{"bufferView":13,"componentType":5126,"count":24,"max":[1,1,1],"min":[-1,-1,-1],"type":"VEC3"},{"bufferView":14,"componentType":5126,"count":24,"max":[0.624755859375,0.374755859375],"min":[0.312744140625,0.250244140625],"type":"VEC2"},{"bufferView":15,"componentType":5123,"count":36,"max":[23],"min":[0],"type":"SCALAR"},{"bufferView":16,"componentType":5126,"count":24,"max":[0.25,0,0.1875],"min":[0,-0.125,-0.1875],"type":"VEC3"},{"bufferView":17,"componentType":5126,"count":24,"max":[1,1,1],"min":[-1,-1,-1],"type":"VEC3"},{"bufferView":18,"componentType":5126,"count":24,"max":[0.624755859375,0.374755859375],"min":[0.312744140625,0.250244140625],"type":"VEC2"},{"bufferView":19,"componentType":5123,"count":36,"max":[23],"min":[0],"type":"SCALAR"},{"bufferView":20,"componentType":5126,"count":24,"max":[0.25,0,0.3125],"min":[-0.25,-0.125,0],"type":"VEC3"},{"bufferView":21,"componentType":5126,"count":24,"max":[1,1,1],"min":[-1,-1,-1],"type":"VEC3"},{"bufferView":22,"componentType":5126,"count":24,"max":[0.406005859375,0.343505859375],"min":[0.000244140625,0.234619140625],"type":"VEC2"},{"bufferView":23,"componentType":5123,"count":36,"max":[23],"min":[0],"type":"SCALAR"},{"bufferView":24,"componentType":5126,"count":24,"max":[0.1875,0.8125,0.125],"min":[-0.1875,0.5625,-0.25],"type":"VEC3"},{"bufferView":25,"componentType":5126,"count":24,"max":[1,1,1],"min":[-1,-1,-1],"type":"VEC3"},{"bufferView":26,"componentType":5126,"count":24,"max":[0.968505859375,0.156005859375],"min":[0.593994140625,0.000244140625],"type":"VEC2"},{"bufferView":27,"componentType":5123,"count":36,"max":[23],"min":[0],"type":"SCALAR"},{"bufferView":28,"componentType":5126,"count":24,"max":[0.0625,0.6875,0],"min":[-0.0625,0.5,-0.125],"type":"VEC3"},{"bufferView":29,"componentType":5126,"count":24,"max":[1,1,1],"min":[-1,-1,-1],"type":"VEC3"},{"bufferView":30,"componentType":5126,"count":24,"max":[0.749755859375,0.359130859375],"min":[0.625244140625,0.281494140625],"type":"VEC2"},{"bufferView":31,"componentType":5123,"count":36,"max":[23],"min":[0],"type":"SCALAR"},{"bufferView":32,"componentType":5126,"count":24,"max":[0.1875,0.5,0.125],"min":[-0.1875,0.375,-0.25],"type":"VEC3"},{"bufferView":33,"componentType":5126,"count":24,"max":[1,1,1],"min":[-1,-1,-1],"type":"VEC3"},{"bufferView":34,"componentType":5126,"count":24,"max":[0.968505859375,0.281005859375],"min":[0.593994140625,0.156494140625],"type":"VEC2"},{"bufferView":35,"componentType":5123,"count":36,"max":[23],"min":[0],"type":"SCALAR"},{"bufferView":36,"componentType":5126,"count":24,"max":[0.0625,0.6875,0],"min":[-0.0625,0.5,-0.125],"type":"VEC3"},{"bufferView":37,"componentType":5126,"count":24,"max":[1,1,1],"min":[-1,-1,-1],"type":"VEC3"},{"bufferView":38,"componentType":5126,"count":24,"max":[0.749755859375,0.359130859375],"min":[0.625244140625,0.281494140625],"type":"VEC2"},{"bufferView":39,"componentType":5123,"count":36,"max":[23],"min":[0],"type":"SCALAR"},{"bufferView":40,"componentType":5126,"count":3,"max":[1],"min":[0],"type":"SCALAR"},{"bufferView":41,"componentType":5126,"count":3,"max":[1.100000023841858,1,1.100000023841858],"min":[1,0.949999988079071,1],"type":"VEC3"},{"bufferView":42,"componentType":5126,"count":3,"max":[1],"min":[0],"type":"SCALAR"},{"bufferView":43,"componentType":5126,"count":3,"max":[0,0,0.08715574443340302,1],"min":[0,0,0,0.9961947202682495],"type":"VEC4"},{"bufferView":44,"componentType":5126,"count":3,"max":[1],"min":[0],"type":"SCALAR"},{"bufferView":45,"componentType":5126,"count":3,"max":[0,0,0,1],"min":[0,0,-0.08715574443340302,0.9961947202682495],"type":"VEC4"},{"bufferView":46,"componentType":5126,"count":3,"max":[1],"min":[0],"type":"SCALAR"},{"bufferView":47,"componentType":5126,"count":3,"max":[0,0,0,1],"min":[-0.08715574443340302,0,0,0.9961947202682495],"type":"VEC4"},{"bufferView":48,"componentType":5126,"count":3,"max":[1],"min":[0],"type":"SCALAR"},{"bufferView":49,"componentType":5126,"count":3,"max":[0,0.39375001192092896,-0.0625],"min":[0,0.375,-0.0625],"type":"VEC3"},{"bufferView":50,"componentType":5126,"count":3,"max":[1],"min":[0],"type":"SCALAR"},{"bufferView":51,"componentType":5126,"count":3,"max":[0,-0.125,0],"min":[0,-0.15625,0],"type":"VEC3"},{"bufferView":52,"componentType":5126,"count":3,"max":[0.8799999952316284],"min":[0],"type":"SCALAR"},{"bufferView":53,"componentType":5126,"count":3,"max":[0,-0.25,0],"min":[0,-0.25,-0.125],"type":"VEC3"},{"bufferView":54,"componentType":5126,"count":3,"max":[0.8799999952316284],"min":[0],"type":"SCALAR"},{"bufferView":55,"componentType":5126,"count":3,"max":[1,1,1.2000000476837158],"min":[1,0.800000011920929,1],"type":"VEC3"},{"bufferView":56,"componentType":5126,"count":3,"max":[0.8799999952316284],"min":[0],"type":"SCALAR"},{"bufferView":57,"componentType":5126,"count":3,"max":[0,0.375,-0.0625],"min":[0,0.296875,-0.25],"type":"VEC3"},{"bufferView":58,"componentType":5126,"count":1,"max":[0],"min":[0],"type":"SCALAR"},{"bufferView":59,"componentType":5126,"count":1,"max":[0,-0.125,0],"min":[0,-0.125,0],"type":"VEC3"},{"bufferView":60,"componentType":5126,"count":3,"max":[0.4000000059604645],"min":[0],"type":"SCALAR"},{"bufferView":61,"componentType":5126,"count":3,"max":[-0.15212339162826538,0,0,0.9883615374565125],"min":[-0.2164396196603775,0,0,0.9762960076332092],"type":"VEC4"},{"bufferView":62,"componentType":5126,"count":1,"max":[0],"min":[0],"type":"SCALAR"},{"bufferView":63,"componentType":5126,"count":1,"max":[0,-0.125,0],"min":[0,-0.125,0],"type":"VEC3"},{"bufferView":64,"componentType":5126,"count":3,"max":[0.4000000059604645],"min":[0],"type":"SCALAR"},{"bufferView":65,"componentType":5126,"count":3,"max":[0,0,-0.19509032368659973,0.9807852506637573],"min":[0,0,-0.30070579051971436,0.9537169337272644],"type":"VEC4"},{"bufferView":66,"componentType":5126,"count":3,"max":[0.4000000059604645],"min":[0],"type":"SCALAR"},{"bufferView":67,"componentType":5126,"count":3,"max":[0,0,0.30070579051971436,0.9807852506637573],"min":[0,0,0.19509032368659973,0.9537169337272644],"type":"VEC4"},{"bufferView":68,"componentType":5126,"count":3,"max":[0.4000000059604645],"min":[0],"type":"SCALAR"},{"bufferView":69,"componentType":5126,"count":3,"max":[-0.15212339162826538,0,0,0.9883615374565125],"min":[-0.1736481785774231,0,0,0.9848077297210693],"type":"VEC4"},{"bufferView":70,"componentType":5126,"count":2,"max":[0.4000000059604645],"min":[0],"type":"SCALAR"},{"bufferView":71,"componentType":5126,"count":2,"max":[0,0.625,-0.3125],"min":[0,0.625,-0.3125],"type":"VEC3"},{"bufferView":72,"componentType":5126,"count":1,"max":[0],"min":[0],"type":"SCALAR"},{"bufferView":73,"componentType":5126,"count":1,"max":[0,-0.125,0],"min":[0,-0.125,0],"type":"VEC3"},{"bufferView":74,"componentType":5126,"count":3,"max":[1],"min":[0],"type":"SCALAR"},{"bufferView":75,"componentType":5126,"count":3,"max":[1.2000000476837158,1,1.2000000476837158],"min":[1,0.30000001192092896,1],"type":"VEC3"},{"bufferView":76,"componentType":5126,"count":3,"max":[1],"min":[0],"type":"SCALAR"},{"bufferView":77,"componentType":5126,"count":3,"max":[0,0,0.08715574443340302,1],"min":[0,0,0,0.9961947202682495],"type":"VEC4"},{"bufferView":78,"componentType":5126,"count":3,"max":[1],"min":[0],"type":"SCALAR"},{"bufferView":79,"componentType":5126,"count":3,"max":[1,1.7000000476837158,1],"min":[0.800000011920929,1,0.800000011920929],"type":"VEC3"},{"bufferView":80,"componentType":5126,"count":3,"max":[1],"min":[0],"type":"SCALAR"},{"bufferView":81,"componentType":5126,"count":3,"max":[0,0,0,1],"min":[0,0,-0.08715574443340302,0.9961947202682495],"type":"VEC4"},{"bufferView":82,"componentType":5126,"count":3,"max":[1],"min":[0],"type":"SCALAR"},{"bufferView":83,"componentType":5126,"count":3,"max":[1,1.7000000476837158,1],"min":[0.800000011920929,1,0.800000011920929],"type":"VEC3"},{"bufferView":84,"componentType":5126,"count":3,"max":[1],"min":[0],"type":"SCALAR"},{"bufferView":85,"componentType":5126,"count":3,"max":[0,0,0,1],"min":[-0.08715574443340302,0,0,0.9961947202682495],"type":"VEC4"},{"bufferView":86,"componentType":5126,"count":3,"max":[1],"min":[0],"type":"SCALAR"},{"bufferView":87,"componentType":5126,"count":3,"max":[0,0.4468750059604645,-0.0625],"min":[0,0.4375,-0.0625],"type":"VEC3"},{"bufferView":88,"componentType":5126,"count":3,"max":[1],"min":[0],"type":"SCALAR"},{"bufferView":89,"componentType":5126,"count":3,"max":[0,-0.1875,0],"min":[0,-0.4593749940395355,0],"type":"VEC3"},{"bufferView":90,"componentType":5126,"count":4,"max":[1],"min":[0],"type":"SCALAR"},{"bufferView":91,"componentType":5126,"count":4,"max":[0,0.1875,0],"min":[0,0,0],"type":"VEC3"},{"bufferView":92,"componentType":5126,"count":4,"max":[1],"min":[0],"type":"SCALAR"},{"bufferView":93,"componentType":5126,"count":4,"max":[1,1,1],"min":[0,0,0],"type":"VEC3"}],"materials":[{"pbrMetallicRoughness":{"metallicFactor":0,"roughnessFactor":1,"baseColorTexture":{"index":0}},"alphaMode":"MASK","alphaCutoff":0.05,"doubleSided":true}],"textures":[{"sampler":0,"source":0}],"samplers":[{"magFilter":9728,"minFilter":9728,"wrapS":33071,"wrapT":33071}],"images":[{"mimeType":"image/png","uri":"data:image/png;base64,"}],"meshes":[{"primitives":[{"mode":4,"attributes":{"POSITION":0,"NORMAL":1,"TEXCOORD_0":2},"indices":3,"material":0}]},{"primitives":[{"mode":4,"attributes":{"POSITION":4,"NORMAL":5,"TEXCOORD_0":6},"indices":7,"material":0}]},{"primitives":[{"mode":4,"attributes":{"POSITION":8,"NORMAL":9,"TEXCOORD_0":10},"indices":11,"material":0}]},{"primitives":[{"mode":4,"attributes":{"POSITION":12,"NORMAL":13,"TEXCOORD_0":14},"indices":15,"material":0}]},{"primitives":[{"mode":4,"attributes":{"POSITION":16,"NORMAL":17,"TEXCOORD_0":18},"indices":19,"material":0}]},{"primitives":[{"mode":4,"attributes":{"POSITION":20,"NORMAL":21,"TEXCOORD_0":22},"indices":23,"material":0}]},{"primitives":[{"mode":4,"attributes":{"POSITION":24,"NORMAL":25,"TEXCOORD_0":26},"indices":27,"material":0}]},{"primitives":[{"mode":4,"attributes":{"POSITION":28,"NORMAL":29,"TEXCOORD_0":30},"indices":31,"material":0}]},{"primitives":[{"mode":4,"attributes":{"POSITION":32,"NORMAL":33,"TEXCOORD_0":34},"indices":35,"material":0}]},{"primitives":[{"mode":4,"attributes":{"POSITION":36,"NORMAL":37,"TEXCOORD_0":38},"indices":39,"material":0}]}],"animations":[{"name":"idle","samplers":[{"input":40,"output":41,"interpolation":"LINEAR"},{"input":42,"output":43,"interpolation":"LINEAR"},{"input":44,"output":45,"interpolation":"LINEAR"},{"input":46,"output":47,"interpolation":"LINEAR"},{"input":48,"output":49,"interpolation":"LINEAR"},{"input":50,"output":51,"interpolation":"LINEAR"}],"channels":[{"sampler":0,"target":{"node":9,"path":"scale"}},{"sampler":1,"target":{"node":6,"path":"rotation"}},{"sampler":2,"target":{"node":4,"path":"rotation"}},{"sampler":3,"target":{"node":8,"path":"rotation"}},{"sampler":4,"target":{"node":16,"path":"translation"}},{"sampler":5,"target":{"node":15,"path":"translation"}}]},{"name":"walk","samplers":[{"input":52,"output":53,"interpolation":"LINEAR"},{"input":54,"output":55,"interpolation":"LINEAR"},{"input":56,"output":57,"interpolation":"LINEAR"},{"input":58,"output":59,"interpolation":"LINEAR"}],"channels":[{"sampler":0,"target":{"node":9,"path":"translation"}},{"sampler":1,"target":{"node":9,"path":"scale"}},{"sampler":2,"target":{"node":16,"path":"translation"}},{"sampler":3,"target":{"node":15,"path":"translation"}}]},{"name":"fall","samplers":[{"input":60,"output":61,"interpolation":"LINEAR"},{"input":62,"output":63,"interpolation":"LINEAR"},{"input":64,"output":65,"interpolation":"LINEAR"},{"input":66,"output":67,"interpolation":"LINEAR"},{"input":68,"output":69,"interpolation":"LINEAR"},{"input":70,"output":71,"interpolation":"LINEAR"},{"input":72,"output":73,"interpolation":"LINEAR"}],"channels":[{"sampler":0,"target":{"node":9,"path":"rotation"}},{"sampler":1,"target":{"node":9,"path":"translation"}},{"sampler":2,"target":{"node":4,"path":"rotation"}},{"sampler":3,"target":{"node":6,"path":"rotation"}},{"sampler":4,"target":{"node":16,"path":"rotation"}},{"sampler":5,"target":{"node":16,"path":"translation"}},{"sampler":6,"target":{"node":15,"path":"translation"}}]},{"name":"skill","samplers":[{"input":74,"output":75,"interpolation":"LINEAR"},{"input":76,"output":77,"interpolation":"LINEAR"},{"input":78,"output":79,"interpolation":"LINEAR"},{"input":80,"output":81,"interpolation":"LINEAR"},{"input":82,"output":83,"interpolation":"LINEAR"},{"input":84,"output":85,"interpolation":"LINEAR"},{"input":86,"output":87,"interpolation":"LINEAR"},{"input":88,"output":89,"interpolation":"LINEAR"},{"input":90,"output":91,"interpolation":"LINEAR"},{"input":92,"output":93,"interpolation":"LINEAR"}],"channels":[{"sampler":0,"target":{"node":9,"path":"scale"}},{"sampler":1,"target":{"node":6,"path":"rotation"}},{"sampler":2,"target":{"node":6,"path":"scale"}},{"sampler":3,"target":{"node":4,"path":"rotation"}},{"sampler":4,"target":{"node":4,"path":"scale"}},{"sampler":5,"target":{"node":8,"path":"rotation"}},{"sampler":6,"target":{"node":16,"path":"translation"}},{"sampler":7,"target":{"node":15,"path":"translation"}},{"sampler":8,"target":{"node":14,"path":"translation"}},{"sampler":9,"target":{"node":14,"path":"scale"}}]}]}