<svg id="Minecraft_Bedrock_Edition" version="1.1" width="1295.5" height="270.76001" xmlns:xlink="http://www.w3.org/1999/xlink" xmlns="http://www.w3.org/2000/svg"><defs id="defs100"><linearGradient id="Base_Gradient" x1="364.42999" y1="300.14001" x2="364.42999" y2="321.14999" gradientUnits="userSpaceOnUse"><stop offset="0" stop-color="#3d3938" id="stop4"/><stop offset="1" stop-color="#1c1b1a" id="stop6"/></linearGradient><linearGradient id="Base_Gradient-2" x1="436.13" y1="300.14001" x2="436.13" y2="321.14999" xlink:href="#Base_Gradient"/><linearGradient id="Base_Gradient-3" x1="632.37" y1="300.14001" x2="632.37" y2="321.14999" xlink:href="#Base_Gradient"/><linearGradient id="Base_Gradient-4" x1="777.46997" y1="300.14001" x2="777.46997" y2="321.14999" xlink:href="#Base_Gradient"/><linearGradient id="Base_Gradient-5" x1="885.76001" y1="300.14001" x2="885.76001" y2="321.14999" xlink:href="#Base_Gradient"/><linearGradient id="Base_Gradient-6" x1="957.46002" y1="300.14001" x2="957.46002" y2="321.14999" xlink:href="#Base_Gradient"/><linearGradient id="Base_Gradient-7" x1="1029.17" y1="300.14001" x2="1029.17" y2="321.14999" xlink:href="#Base_Gradient"/><linearGradient id="Base_Gradient-8" x1="1100.88" y1="300.14001" x2="1100.88" y2="321.14999" xlink:href="#Base_Gradient"/><linearGradient id="Base_Gradient-9" x1="1172.59" y1="300.14001" x2="1172.59" y2="321.14999" xlink:href="#Base_Gradient"/><linearGradient id="Base_Gradient-10" x1="525.77002" y1="300.14001" x2="525.77002" y2="321.14999" xlink:href="#Base_Gradient"/><linearGradient id="Front_Face_Gradient" x1="759.06" y1="121.2" x2="759.06" y2="273.60999" gradientUnits="userSpaceOnUse" gradientTransform="translate(-111.25 -111)"><stop offset="0" stop-color="#d0c5c0" id="stop18"/><stop offset=".99" stop-color="#aba09c" id="stop20"/></linearGradient><linearGradient id="Crack_Highlight_Gradient" x1="723.53998" y1="142.7" x2="723.53998" y2="272.48001" gradientUnits="userSpaceOnUse"><stop offset="0" stop-color="#ede5e2" id="stop23"/><stop offset="1" stop-color="#d0c5c0" id="stop25"/></linearGradient><linearGradient id="Crack_Highlight_Gradient-2" x1="435.91" y1="142.7" x2="435.91" y2="272.48001" xlink:href="#Crack_Highlight_Gradient"/><linearGradient id="Crack_Highlight_Gradient-3" x1="507.81" y1="142.7" x2="507.81" y2="272.48001" xlink:href="#Crack_Highlight_Gradient"/><linearGradient id="Crack_Highlight_Gradient-4" x1="1352.72" y1="142.7" x2="1352.72" y2="272.48001" xlink:href="#Crack_Highlight_Gradient"/><linearGradient id="Crack_Highlight_Gradient-5" x1="151.96001" y1="142.7" x2="151.96001" y2="272.48001" xlink:href="#Crack_Highlight_Gradient"/><linearGradient id="Crack_Highlight_Gradient-6" x1="170.55" y1="142.7" x2="170.55" y2="272.48001" xlink:href="#Crack_Highlight_Gradient"/><linearGradient id="Crack_Highlight_Gradient-7" x1="175.2" y1="142.7" x2="175.2" y2="272.48001" xlink:href="#Crack_Highlight_Gradient"/><linearGradient id="Crack_Highlight_Gradient-8" x1="224.98" y1="142.7" x2="224.98" y2="272.48001" xlink:href="#Crack_Highlight_Gradient"/><linearGradient id="Crack_Highlight_Gradient-9" x1="280.73999" y1="142.7" x2="280.73999" y2="272.48001" xlink:href="#Crack_Highlight_Gradient"/><linearGradient id="Crack_Highlight_Gradient-10" x1="354.81" y1="142.7" x2="354.81" y2="272.48001" xlink:href="#Crack_Highlight_Gradient"/><linearGradient id="Crack_Highlight_Gradient-11" x1="424.54999" y1="142.7" x2="424.54999" y2="272.48001" xlink:href="#Crack_Highlight_Gradient"/><linearGradient id="Crack_Highlight_Gradient-12" x1="581.72998" y1="142.95" x2="581.72998" y2="272.38" xlink:href="#Crack_Highlight_Gradient"/><linearGradient id="Crack_Highlight_Gradient-13" x1="662.15002" y1="142.7" x2="662.15002" y2="272.48001" xlink:href="#Crack_Highlight_Gradient"/><linearGradient id="Crack_Highlight_Gradient-14" x1="900.94" y1="142.7" x2="900.94" y2="272.48001" xlink:href="#Crack_Highlight_Gradient"/><linearGradient id="Crack_Highlight_Gradient-15" x1="940.09003" y1="142.7" x2="940.09003" y2="272.48001" xlink:href="#Crack_Highlight_Gradient"/><linearGradient id="Crack_Highlight_Gradient-16" x1="1039.12" y1="142.7" x2="1039.12" y2="272.48001" xlink:href="#Crack_Highlight_Gradient"/><linearGradient id="Crack_Highlight_Gradient-17" x1="1103.54" y1="142.71001" x2="1103.54" y2="272.48001" xlink:href="#Crack_Highlight_Gradient"/><linearGradient id="Crack_Highlight_Gradient-18" x1="1022.77" y1="142.7" x2="1022.77" y2="272.48001" xlink:href="#Crack_Highlight_Gradient"/><linearGradient id="Crack_Highlight_Gradient-19" x1="1053.4301" y1="142.7" x2="1053.4301" y2="272.48001" xlink:href="#Crack_Highlight_Gradient"/><linearGradient id="Crack_Highlight_Gradient-20" x1="1108.63" y1="142.7" x2="1108.63" y2="272.48001" xlink:href="#Crack_Highlight_Gradient"/><linearGradient id="Crack_Highlight_Gradient-21" x1="1182.22" y1="142.7" x2="1182.22" y2="272.48001" xlink:href="#Crack_Highlight_Gradient"/><linearGradient id="Crack_Highlight_Gradient-22" x1="1366.1801" y1="142.7" x2="1366.1801" y2="272.48001" xlink:href="#Crack_Highlight_Gradient"/><linearGradient id="Crack_Highlight_Gradient-23" x1="875.59998" y1="142.7" x2="875.59998" y2="272.48001" xlink:href="#Crack_Highlight_Gradient"/><linearGradient id="Crack_Highlight_Gradient-24" x1="906.25" y1="142.69" x2="906.25" y2="272.48001" xlink:href="#Crack_Highlight_Gradient"/><linearGradient id="Crack_Highlight_Gradient-25" x1="740.65997" y1="142.7" x2="740.65997" y2="272.48001" xlink:href="#Crack_Highlight_Gradient"/><linearGradient id="Crack_Highlight_Gradient-26" x1="808.15002" y1="142.7" x2="808.15002" y2="272.48001" xlink:href="#Crack_Highlight_Gradient"/><linearGradient id="Crack_Highlight_Gradient-27" x1="961.46002" y1="142.7" x2="961.46002" y2="272.48001" xlink:href="#Crack_Highlight_Gradient"/><linearGradient id="Crack_Highlight_Gradient-28" x1="575.09998" y1="142.7" x2="575.09998" y2="272.48001" xlink:href="#Crack_Highlight_Gradient"/><linearGradient id="Crack_Highlight_Gradient-29" x1="621.08002" y1="142.7" x2="621.08002" y2="272.48001" xlink:href="#Crack_Highlight_Gradient"/><linearGradient id="Crack_Highlight_Gradient-30" x1="676.28003" y1="142.7" x2="676.28003" y2="272.48001" xlink:href="#Crack_Highlight_Gradient"/><linearGradient id="Crack_Highlight_Gradient-31" x1="507.64001" y1="142.7" x2="507.64001" y2="272.48001" xlink:href="#Crack_Highlight_Gradient"/><linearGradient id="Crack_Highlight_Gradient-32" x1="538.31" y1="142.7" x2="538.31" y2="272.48001" xlink:href="#Crack_Highlight_Gradient"/><linearGradient id="Crack_Highlight_Gradient-33" x1="409.53" y1="142.7" x2="409.53" y2="272.48001" xlink:href="#Crack_Highlight_Gradient"/><linearGradient id="Crack_Highlight_Gradient-34" x1="440.19" y1="142.7" x2="440.19" y2="272.48001" xlink:href="#Crack_Highlight_Gradient"/><linearGradient id="Crack_Highlight_Gradient-35" x1="335.94" y1="142.7" x2="335.94" y2="272.48001" xlink:href="#Crack_Highlight_Gradient"/><linearGradient id="Crack_Highlight_Gradient-36" x1="366.60001" y1="142.7" x2="366.60001" y2="272.48001" xlink:href="#Crack_Highlight_Gradient"/><linearGradient id="Crack_Highlight_Gradient-37" x1="1007.66" y1="142.95" x2="1007.66" y2="272.07999" xlink:href="#Crack_Highlight_Gradient"/><linearGradient id="Crack_Highlight_Gradient-38" x1="476.45999" y1="142.7" x2="476.45999" y2="272.48001" xlink:href="#Crack_Highlight_Gradient"/><linearGradient id="Crack_Highlight_Gradient-39" x1="190.12" y1="142.7" x2="190.12" y2="272.48001" xlink:href="#Crack_Highlight_Gradient"/><linearGradient id="Crack_Highlight_Gradient-40" x1="296.66" y1="142.7" x2="296.66" y2="272.48001" xlink:href="#Crack_Highlight_Gradient"/><linearGradient id="Crack_Highlight_Gradient-41" x1="315.81" y1="142.7" x2="315.81" y2="272.48001" xlink:href="#Crack_Highlight_Gradient"/><linearGradient id="Crack_Highlight_Gradient-42" x1="277.82001" y1="142.7" x2="277.82001" y2="272.48001" xlink:href="#Crack_Highlight_Gradient"/><linearGradient id="Crack_Highlight_Gradient-43" x1="394.54999" y1="142.7" x2="394.54999" y2="272.48001" xlink:href="#Crack_Highlight_Gradient"/><linearGradient id="Crack_Highlight_Gradient-44" x1="466.53" y1="142.7" x2="466.53" y2="272.48001" xlink:href="#Crack_Highlight_Gradient"/><linearGradient id="Crack_Highlight_Gradient-45" x1="535.60999" y1="142.7" x2="535.60999" y2="272.48001" xlink:href="#Crack_Highlight_Gradient"/><linearGradient id="Crack_Highlight_Gradient-46" x1="586.04999" y1="142.7" x2="586.04999" y2="272.48001" xlink:href="#Crack_Highlight_Gradient"/><linearGradient id="Crack_Highlight_Gradient-47" x1="742.56" y1="142.7" x2="742.56" y2="272.48001" xlink:href="#Crack_Highlight_Gradient"/><linearGradient id="Crack_Highlight_Gradient-48" x1="864.47998" y1="142.7" x2="864.47998" y2="272.48001" xlink:href="#Crack_Highlight_Gradient"/><linearGradient id="Crack_Highlight_Gradient-49" x1="916.01001" y1="142.7" x2="916.01001" y2="272.48001" xlink:href="#Crack_Highlight_Gradient"/><linearGradient id="Crack_Highlight_Gradient-50" x1="1288.3199" y1="142.7" x2="1288.3199" y2="272.48001" xlink:href="#Crack_Highlight_Gradient"/><linearGradient id="Crack_Highlight_Gradient-51" x1="1377.79" y1="142.7" x2="1377.79" y2="272.48001" xlink:href="#Crack_Highlight_Gradient"/><linearGradient id="Crack_Highlight_Gradient-52" x1="1200.48" y1="142.64999" x2="1200.48" y2="271.85001" xlink:href="#Crack_Highlight_Gradient"/><linearGradient id="Crack_Highlight_Gradient-53" x1="1198.85" y1="142.7" x2="1198.85" y2="272.48001" xlink:href="#Crack_Highlight_Gradient"/><linearGradient id="Crack_Highlight_Gradient-54" x1="1236.37" y1="142.7" x2="1236.37" y2="272.48001" xlink:href="#Crack_Highlight_Gradient"/><linearGradient id="Crack_Highlight_Gradient-55" x1="885.58002" y1="142.84" x2="885.58002" y2="272.04001" xlink:href="#Crack_Highlight_Gradient"/><linearGradient id="Crack_Highlight_Gradient-56" x1="1034.34" y1="142.7" x2="1034.34" y2="272.47" xlink:href="#Crack_Highlight_Gradient"/><linearGradient id="Crack_Highlight_Gradient-57" x1="1056.9301" y1="142.7" x2="1056.9301" y2="272.47" xlink:href="#Crack_Highlight_Gradient"/><linearGradient id="Crack_Highlight_Gradient-58" x1="1074.75" y1="142.7" x2="1074.75" y2="272.47" xlink:href="#Crack_Highlight_Gradient"/><linearGradient id="Crack_Highlight_Gradient-59" x1="1074.41" y1="142.7" x2="1074.41" y2="272.48001" xlink:href="#Crack_Highlight_Gradient"/><linearGradient id="Crack_Highlight_Gradient-60" x1="1042.23" y1="142.7" x2="1042.23" y2="272.48001" xlink:href="#Crack_Highlight_Gradient"/><linearGradient id="Crack_Highlight_Gradient-61" x1="664.89001" y1="142.7" x2="664.89001" y2="272.48001" xlink:href="#Crack_Highlight_Gradient"/><linearGradient id="Crack_Highlight_Gradient-62" x1="803.46002" y1="142.7" x2="803.46002" y2="272.48001" xlink:href="#Crack_Highlight_Gradient"/><linearGradient id="Crack_Highlight_Gradient-63" x1="970.79999" y1="142.7" x2="970.79999" y2="272.48001" xlink:href="#Crack_Highlight_Gradient"/><linearGradient id="Crack_Highlight_Gradient-64" x1="156.03" y1="142.7" x2="156.03" y2="272.48001" xlink:href="#Crack_Highlight_Gradient"/><linearGradient id="Crack_Highlight_Gradient-65" x1="206.58" y1="142.7" x2="206.58" y2="272.48001" xlink:href="#Crack_Highlight_Gradient"/><linearGradient id="Crack_Highlight_Gradient-66" x1="260.10001" y1="142.7" x2="260.10001" y2="272.48001" xlink:href="#Crack_Highlight_Gradient"/><linearGradient id="Crack_Highlight_Gradient-67" x1="1211.59" y1="142.7" x2="1211.59" y2="272.48001" xlink:href="#Crack_Highlight_Gradient"/><linearGradient id="Crack_Highlight_Gradient-68" x1="1250.25" y1="142.7" x2="1250.25" y2="272.48001" xlink:href="#Crack_Highlight_Gradient"/><linearGradient id="Crack_Highlight_Gradient-69" x1="1155.1" y1="142.7" x2="1155.1" y2="272.48001" xlink:href="#Crack_Highlight_Gradient"/><linearGradient id="Crack_Highlight_Gradient-70" x1="661.48999" y1="142.7" x2="661.48999" y2="272.48001" xlink:href="#Crack_Highlight_Gradient"/><linearGradient id="Crack_Highlight_Gradient-71" x1="771.38" y1="142.7" x2="771.38" y2="272.48001" xlink:href="#Crack_Highlight_Gradient"/><linearGradient id="Crack_Highlight_Gradient-72" x1="920.20001" y1="142.7" x2="920.20001" y2="272.48001" xlink:href="#Crack_Highlight_Gradient"/><linearGradient id="Crack_Highlight_Gradient-73" x1="1065.09" y1="142.7" x2="1065.09" y2="272.48001" xlink:href="#Crack_Highlight_Gradient"/><linearGradient xlink:href="#Base_Gradient" id="linearGradient1380" gradientUnits="userSpaceOnUse" x1="364.42999" y1="300.14001" x2="364.42999" y2="321.14999"/><linearGradient xlink:href="#Crack_Highlight_Gradient" id="linearGradient1382" gradientUnits="userSpaceOnUse" x1="723.53998" y1="142.7" x2="723.53998" y2="272.48001"/><style id="style2">.cls-10{fill:#3d3938}.cls-13{fill:#998f8b}.cls-14{fill:#262423}.cls-15{fill:#6b6562}.cls-16{fill:#171615}.cls-90{fill:#d0c5c0}.cls-91{fill:#ede5e2}</style></defs><path d="m1270.5 80.29 23.35-38.72L1280.9 0H390.49l-4.16 30.35L378.07 0H170.56l-7.14 28.57h-17.26l-4.09 15.8L119.17 0H51.54L0 165.41l41.07 56.33h67.54l8.26-31.25h27.28l18.29 31.25h921.46l28.2-58.43h25.5l23.68-46.31 25.29 104.78h70.11l38.82-56.42zm-601.75 39.25.08-19.75h59.92l.61 19.75z" id="path102"/><path id="polygon104" style="fill:url(#linearGradient1380)" transform="translate(-111.25 -111)" d="M350.07 321.24h52.33l-20.72-46.93h-55.23z"/><path id="polygon106" style="fill:url(#Base_Gradient-2)" transform="translate(-111.25 -111)" d="m472.18 321.24-16.87-46.93h-55.22l19.76 46.93z"/><path id="polygon108" style="fill:url(#Base_Gradient-3)" transform="translate(-111.25 -111)" d="m698.97 321.24-4.34-46.93H565.77l11.08 46.93z"/><path id="polygon110" style="fill:url(#Base_Gradient-4)" transform="translate(-111.25 -111)" d="m716.41 321.24-3.37-46.93H841.9l-3.37 46.93z"/><path id="polygon112" style="fill:url(#Base_Gradient-5)" transform="translate(-111.25 -111)" d="M908.31 321.24h-52.33l4.33-46.93h55.23z"/><path id="polygon114" style="fill:url(#Base_Gradient-6)" transform="translate(-111.25 -111)" d="m978.09 321.24 11.08-46.93h-55.22l-8.2 46.93z"/><path id="polygon116" style="fill:url(#Base_Gradient-7)" transform="translate(-111.25 -111)" d="m1047.87 321.24 14.94-46.93h-55.23l-12.04 46.93z"/><path id="polygon118" style="fill:url(#Base_Gradient-8)" transform="translate(-111.25 -111)" d="m1117.65 321.24 18.79-46.93h-55.22l-15.9 46.93z"/><path id="polygon120" style="fill:url(#Base_Gradient-9)" transform="translate(-111.25 -111)" d="m1187.43 321.24 22.65-46.93h-55.23l-19.75 46.93z"/><path class="cls-10" id="polygon122" transform="translate(-111.25 -111)" d="m1361.88 321.24 32.29-46.93h-55.23l-29.39 46.93z"/><path id="polygon124" style="fill:url(#Base_Gradient-10)" transform="translate(-111.25 -111)" d="m559.41 321.24-12.05-46.93h-55.23l14.94 46.93z"/><path class="cls-10" id="polygon126" transform="translate(-111.25 -111)" d="M332.62 321.24h-52.33l-27.47-46.93h55.23z"/><path class="cls-10" id="polygon128" transform="translate(-111.25 -111)" d="m179.18 274.31 31.32 46.93h-52.33l-34.22-46.93z"/><path d="M157.45 99.79H139.6L131.51 131H95.26l8.64-31.25H86.05l-18.12 63.52H12.75l47.3-151.83h51.23l-8.15 28.57h17.33l-8.13 29.43h35.12l7.62-29.43h17.32l7.15-28.57h51.21l-34 151.83h-55.18zm90.4-88.31h51.23l-28.65 151.83H215.2Zm222 0h119.53l-1.13 28.57h-69.31l-2.19 29.43h70.35l-1.2 30.31h-71.42L512.15 131h72.5l-1.27 32.27H454.52Zm136.61 0h119.53l.88 28.57h-69.31l-.4 91h72.5l1 32.27H601.75Zm211.51 88.31h-17.86l4.18 63.52h-55.23l-6-151.83H862.6l5.85 58h-17.58l1.38 15h17.72l7.95 78.79h-55.17zm-21.79-59.74 1.94 29.43h17.63l-2.2-29.43zm220.12-28.57h119.53l6.9 28.57h-69.31l6.07 29.43h70.34l7.32 30.31h-71.4l13.1 63.52h-55.23zm178.45 28.57h-34.7l-7.15-28.57h119.54l8.9 28.57h-34.66l36.24 123.26h-55.23zM387.41 115.3h-18l4.45-30.78h-17.7l-12.1 78.79h-55.22l27.31-151.83h51.23l-4.39 28.57h17.33l-4.26 29.43h17.59l7.88-58h51.22l-16.64 151.83h-55.23Zm611.8-103.82H879.68l16.65 151.83h55.23l-6.53-48h18l7 48h55.22zM958.95 67h8.8l4.17 27.69h-11.87l-1.47-10.16h-17.72l1.38 10.16h-11.89L926.75 67h8.78l-1-7.42h-20.41l-2.43-19.52h23.06l2.32 17.06h17.48l-2.47-17.06h23.1l3.06 19.52h-20.42z" id="path130" style="fill:url(#Front_Face_Gradient)"/><path class="cls-13" id="polygon132" transform="translate(-111.25 -111)" d="m344.86 274.31 6.66-32.27h6.04L351 274.31z"/><path class="cls-13" id="polygon134" transform="translate(-111.25 -111)" d="m1038.26 274.31-2.02-16.29h6.09l2.07 16.29z"/><path class="cls-14" id="polygon136" transform="translate(-111.25 -111)" d="m351.91 288.93-7.05-14.62H351l6.95 14.62z"/><path class="cls-13" id="polygon138" transform="translate(-111.25 -111)" d="m418.5 274.31 2.78-16.29h6.09l-2.74 16.29z"/><path class="cls-14" id="polygon140" transform="translate(-111.25 -111)" d="m526.97 288.93-4.16-14.62h6.14l4.05 14.62z"/><path class="cls-14" id="polygon142" transform="translate(-111.25 -111)" d="m177.35 298.41 3.21 4.66h17.82l-3.12-4.66z"/><path class="cls-14" id="polygon144" transform="translate(-111.25 -111)" d="M657.81 274.31h-6.13l2.05 14.62h6.03z"/><path class="cls-14" id="polygon146" transform="translate(-111.25 -111)" d="m1341.76 298.41-3.02 4.66h-17.81l2.92-4.66z"/><path class="cls-13" id="polygon148" transform="translate(-111.25 -111)" d="m998.94 195.52.55 5.07h17.77l-.6-5.07z"/><path class="cls-13" id="polygon150" transform="translate(-111.25 -111)" d="m259.98 175.51-1.28 4.97h70.34l1.11-4.97h-29.23l6.98-29.28h-23.05l-1.21 4.82h17.33l-5.9 24.46z"/><path class="cls-13" id="polygon152" transform="translate(-111.25 -111)" d="M1357.93 151.05h5.78l-8.49-28.57h-5.69z"/><path class="cls-13" id="polygon154" transform="translate(-111.25 -111)" d="M1226.73 210.79h5.95l-6.78-30.31h-5.86z"/><path class="cls-13" id="polygon156" transform="translate(-111.25 -111)" d="m913.41 242.04-.34-5.28h-24.11l2.03 37.55h6.14l-1.84-32.27z"/><path class="cls-13" id="polygon158" transform="translate(-111.25 -111)" d="M214.34 151.05h-51.99l1.5-4.82h51.86z"/><path class="cls-13" id="polygon160" transform="translate(-111.25 -111)" d="m462.69 226.3-.8 5.22h-54.1l.94-5.22z"/><path class="cls-13" id="polygon162" transform="translate(-111.25 -111)" d="m1380.05 226.3 1.54 5.22h-54.1l-1.4-5.22z"/><path class="cls-13" id="polygon164" transform="translate(-111.25 -111)" d="m1130.92 242.04.91 5.3h-54.52l-.77-5.3z"/><path class="cls-13" id="polygon166" transform="translate(-111.25 -111)" d="M534.64 226.3h-35.98l-.71 5.22h30.06l-5.2 42.79h6.14z"/><path class="cls-13" id="polygon168" transform="translate(-111.25 -111)" d="m855.83 160.76.19 4.9h17.46l.71 14.82h17.59l-.29-4.97H879.8l-2.72-53.03h-5.69l1.85 38.28z"/><path class="cls-13" id="polygon170" transform="translate(-111.25 -111)" d="m855.83 160.76.19 4.9h17.46l.71 14.82h17.59l-.29-4.97H879.8l-2.72-53.03h-5.69l1.85 38.28z"/><path class="cls-13" id="polygon172" transform="translate(-111.25 -111)" d="m160.04 215.94-12.75 42.08h36.53l1.53-5.35h-30.36l3.19-10.63h30.2l1.51-5.28h-30.13l7.78-25.97h-23.8l-1.6 5.15z"/><path class="cls-13" id="polygon174" transform="translate(-111.25 -111)" d="m1210.36 136.66 3.18 14.39h5.78l-4.29-19.14h-28.6l-1.97-9.43h-5.69l2.92 14.18z"/><path class="cls-13" id="polygon176" transform="translate(-111.25 -111)" d="M594.19 165.66h-17.46l.5-4.9h17.41z"/><path class="cls-13" id="polygon178" transform="translate(-111.25 -111)" d="m569.56 236.76-.54 5.28h18.13l-2.97 32.27h6.13l3.35-37.55z"/><path class="cls-13" id="polygon180" transform="translate(-111.25 -111)" d="M456.92 151.05h17.32l.74-4.82H457.7z"/><path class="cls-13" id="polygon182" transform="translate(-111.25 -111)" d="M508.9 151.05h51.98l.53-4.82h-51.86z"/><path class="cls-14" id="polygon184" transform="translate(-111.25 -111)" d="M1029.89 303.07h5.95l8.56-28.76h-6.14z"/><path class="cls-13" id="polygon186" transform="translate(-111.25 -111)" d="m949.66 242.04-.43-5.28h-18.09l.4 5.28z"/><path class="cls-13" id="polygon188" transform="translate(-111.25 -111)" d="m738.4 231.52 1.16-60.95h29.16l.02-4.91h-52.36l-.15 4.91h17.49l-1.22 55.73h-17.99l-.16 5.22z"/><path class="cls-13" id="polygon190" transform="translate(-111.25 -111)" d="m1173.21 242.04-5.98-31.25h-23.8l.92 5.15h17.9l4.92 26.1z"/><path class="cls-13" id="polygon192" transform="translate(-111.25 -111)" d="M768.33 260.71h6.09l-.02 13.6h-6.13z"/><path class="cls-14" id="polygon194" transform="translate(-111.25 -111)" d="M768.27 274.31h6.13l.05 14.62h-6.04z"/><path class="cls-14" id="polygon196" transform="translate(-111.25 -111)" d="M890.99 274.31h6.14l-1.95 14.62h-6.04z"/><path class="cls-13" id="polygon198" transform="translate(-111.25 -111)" d="m382.8 146.23-3.9 19.43h5.82l2.89-14.61h17.32l.91-4.82z"/><path class="cls-13" id="polygon200" transform="translate(-111.25 -111)" d="m677.01 258.02.77-15.98h-6.04l-.55 10.63h-18.22l-1.29 21.64h6.13l.93-16.29z"/><path class="cls-14" id="polygon202" transform="translate(-111.25 -111)" d="m430.01 303.07-11.51-28.76h6.13l11.32 28.76z"/><path class="cls-15" id="polygon204" transform="translate(-111.25 -111)" d="m142.94 213.36.8-2.57h23.8l-.77 2.57z"/><path class="cls-15" id="polygon206" transform="translate(-111.25 -111)" d="m189.14 239.4.75-2.64h-30.13l2.22 2.65z"/><path class="cls-15" id="polygon208" transform="translate(-111.25 -111)" d="m184.59 255.34.76-2.67h-30.36l2.24 2.67z"/><path class="cls-15" id="polygon210" transform="translate(-111.25 -111)" d="M215.02 148.64H163.1l.75-2.41h51.86z"/><path class="cls-15" id="polygon212" transform="translate(-111.25 -111)" d="m307.32 148.64.58-2.41h-23.05l-.6 2.41z"/><path class="cls-15" id="polygon214" transform="translate(-111.25 -111)" d="m300.97 151.05 2.31 2.42-5.88 24.52h-38.06l.64-2.48h35.09z"/><path class="cls-15" id="polygon216" transform="translate(-111.25 -111)" d="m329.6 177.99.55-2.48h-29.23l2.33 2.48z"/><path class="cls-15" id="polygon218" transform="translate(-111.25 -111)" d="M150.34 258.02h-3.05l12.75-42.08 2.2 2.57z"/><path class="cls-15" id="polygon220" transform="translate(-111.25 -111)" d="M378.9 165.66h2.91l3.39-17.02h20.19l.45-2.41H382.8z"/><path class="cls-15" id="polygon222" transform="translate(-111.25 -111)" d="m357.56 242.04-.54 2.65H354l-6.07 29.62h-3.07l6.66-32.27z"/><path class="cls-15" id="polygon224" transform="translate(-111.25 -111)" d="M456.92 151.05h2.88l.39-2.41h14.42l.37-2.41H457.7z"/><path class="cls-15" id="polygon226" transform="translate(-111.25 -111)" d="M561.14 148.64h-51.91l.32-2.41h51.86z"/><path class="cls-15" id="polygon228" transform="translate(-111.25 -111)" d="M462.29 228.9h-54.03l.47-2.6h53.96z"/><path class="cls-15" id="polygon230" transform="translate(-111.25 -111)" d="M427.37 258.02h-6.09l-2.78 16.29h3.06l2.31-13.6h3.05z"/><path class="cls-15" id="polygon232" transform="translate(-111.25 -111)" d="m534.33 228.9.31-2.6h-35.98l-.35 2.6z"/><path class="cls-15" id="polygon234" transform="translate(-111.25 -111)" d="M525.88 274.31h-3.07l5.2-42.79 2.69 2.62z"/><path class="cls-15" id="polygon236" transform="translate(-111.25 -111)" d="m594.41 163.21.23-2.45h-17.41l-.25 2.45z"/><path class="cls-15" id="polygon238" transform="translate(-111.25 -111)" d="m593.43 239.4.23-2.64h-24.1l-.27 2.64z"/><path class="cls-15" id="polygon240" transform="translate(-111.25 -111)" d="M587.24 274.31h-3.06l2.97-32.27 2.78 2.65z"/><path class="cls-15" id="polygon242" transform="translate(-111.25 -111)" d="M655.85 255.34h18.25l.66-13.3h-3.02l-.55 10.63h-18.22l-1.29 21.64h3.06z"/><path class="cls-15" id="polygon244" transform="translate(-111.25 -111)" d="M768.74 165.66h-52.36l-.08 2.45h52.43z"/><path class="cls-15" id="polygon246" transform="translate(-111.25 -111)" d="m733.72 170.57 2.87 2.47-1.14 55.86h-21.02l.08-2.6h17.99z"/><path class="cls-15" id="polygon248" transform="translate(-111.25 -111)" d="M855.92 163.21h14.53l2.79-2.45h-17.41z"/><path class="cls-15" id="polygon250" transform="translate(-111.25 -111)" d="m888.71 177.99.14 2.49h2.93l-.29-4.97H879.8l-2.72-53.03h-2.84l2.76 55.51z"/><path class="cls-15" id="polygon252" transform="translate(-111.25 -111)" d="m888.96 236.76.14 2.64h24.14l-.17-2.64z"/><path class="cls-15" id="polygon254" transform="translate(-111.25 -111)" d="M894.06 274.31h3.07l-1.84-32.27-2.88 2.65z"/><path class="cls-15" id="polyline256" transform="translate(-111.25 -111)" d="m931.14 236.76.2 2.64h15.09l.21 2.64h3.02l-.43-5.28h-18.09"/><path class="cls-15" id="polygon258" transform="translate(-111.25 -111)" d="m999.22 198.05-.28-2.53h17.72l.6 5.07h-2.96l-.3-2.54z"/><path class="cls-15" id="polygon260" transform="translate(-111.25 -111)" d="M1131.38 244.69h-54.45l-.39-2.65h54.38z"/><path class="cls-15" id="polygon262" transform="translate(-111.25 -111)" d="M1036.57 260.71h3.05l1.71 13.6h3.07l-2.07-16.29h-6.09z"/><path class="cls-15" id="polygon264" transform="translate(-111.25 -111)" d="M1143.89 213.36h20.85l5.45 28.68h3.02l-5.98-31.25h-23.8z"/><path class="cls-15" id="polygon266" transform="translate(-111.25 -111)" d="M1215.03 131.91h-28.6l-1.97-9.43h-2.85l2.46 11.8h28.63l3.73 16.77h2.89z"/><path class="cls-15" id="polygon268" transform="translate(-111.25 -111)" d="M1229.71 210.79h2.97l-6.78-30.31h-2.93z"/><path class="cls-15" id="polygon270" transform="translate(-111.25 -111)" d="M1380.82 228.9h-54.03l-.7-2.6h53.96z"/><path class="cls-15" id="polygon272" transform="translate(-111.25 -111)" d="m1363.71 151.05-8.49-28.57h-2.84l8.44 28.57z"/><path class="cls-15" id="polygon274" transform="translate(-111.25 -111)" d="m774.42 260.71.01-2.69h-6.09l-.01 2.69z"/><path class="cls-16" id="polygon276" transform="translate(-111.25 -111)" d="M347.93 274.31h-3.07l7.05 14.62h6.04l-1.14-2.41h-3.03z"/><path class="cls-16" id="polygon278" transform="translate(-111.25 -111)" d="m525.88 274.31 3.43 12.21h3.03l.66 2.41h-6.03l-4.16-14.62z"/><path class="cls-16" id="polygon280" transform="translate(-111.25 -111)" d="m654.74 274.31 1.68 12.21h3.02l.32 2.41h-6.03l-2.05-14.62z"/><path class="cls-16" id="polygon282" transform="translate(-111.25 -111)" d="m1041.33 274.31-7.78 26.44h-2.98l-.68 2.32h5.95l8.56-28.76z"/><path class="cls-16" id="polygon284" transform="translate(-111.25 -111)" d="M1322.38 300.75h14.89l1.51-2.34h2.98l-3.02 4.66h-17.81z"/><path class="cls-16" id="polygon286" transform="translate(-111.25 -111)" d="m177.35 298.41 3.21 4.66h17.82l-1.56-2.32h-14.88l-1.6-2.34z"/><path class="cls-16" id="polygon288" transform="translate(-111.25 -111)" d="m894.06 274.31-1.59 12.21h-3.02l-.31 2.41h6.04l1.95-14.62z"/><path class="cls-16" id="polygon290" transform="translate(-111.25 -111)" d="m774.45 288.93-.01-2.41h-6.05l.02 2.41z"/><path class="cls-16" id="polygon292" transform="translate(-111.25 -111)" d="M421.56 274.31h-3.06l11.51 28.76h5.94l-.91-2.32h-2.98z"/><path class="cls-15" id="polygon294" transform="translate(-111.25 -111)" d="m199.92 305.39-1.54-2.32h-17.82l1.59 2.32z"/><path class="cls-15" id="polygon296" transform="translate(-111.25 -111)" d="m359.09 291.31-1.14-2.38h-6.04l1.16 2.39z"/><path class="cls-15" id="polygon298" transform="translate(-111.25 -111)" d="m533.66 291.31-.66-2.38h-6.03l.67 2.38z"/><path class="cls-15" id="polygon300" transform="translate(-111.25 -111)" d="m660.08 291.31-.32-2.38h-6.03l.33 2.38z"/><path class="cls-15" id="polygon302" transform="translate(-111.25 -111)" d="m1035.15 305.38.69-2.31h-5.95l-.67 2.31z"/><path class="cls-15" id="polygon304" transform="translate(-111.25 -111)" d="m1337.25 305.39 1.49-2.32h-17.81l-1.45 2.32z"/><path class="cls-15" id="polygon306" transform="translate(-111.25 -111)" d="m774.46 291.32-.01-2.39h-6.04l.03 2.38z"/><path class="cls-15" id="polygon308" transform="translate(-111.25 -111)" d="m888.84 291.32.3-2.39h6.04l-.32 2.38z"/><path id="polygon310" style="fill:url(#linearGradient1382)" transform="translate(-111.25 -111)" d="M714.51 226.3h17.99l.06-2.6h-17.97z"/><path id="polygon312" style="fill:url(#Crack_Highlight_Gradient-2)" transform="translate(-111.25 -111)" d="M463.09 223.7h-53.9l-.46 2.6h53.96z"/><path id="polygon314" style="fill:url(#Crack_Highlight_Gradient-3)" transform="translate(-111.25 -111)" d="M480.68 226.3h53.96l.31-2.6h-53.9z"/><path id="polygon316" style="fill:url(#Crack_Highlight_Gradient-4)" transform="translate(-111.25 -111)" d="M1326.09 226.3h53.96l-.76-2.6h-53.9z"/><path id="polygon318" style="fill:url(#Crack_Highlight_Gradient-5)" transform="translate(-111.25 -111)" d="M179.97 271.54h-55.15l-.87 2.77h55.23z"/><path id="polygon320" style="fill:url(#Crack_Highlight_Gradient-6)" transform="translate(-111.25 -111)" d="M186.11 250h-30.32l-.8 2.67h30.36z"/><path id="polygon322" style="fill:url(#Crack_Highlight_Gradient-7)" transform="translate(-111.25 -111)" d="M190.64 234.14h-30.1l-.78 2.62h30.13z"/><path id="polygon324" style="fill:url(#Crack_Highlight_Gradient-8)" transform="translate(-111.25 -111)" d="M243.44 239.4h-36.2l-.73 2.64h36.25z"/><path id="polygon326" style="fill:url(#Crack_Highlight_Gradient-9)" transform="translate(-111.25 -111)" d="M308.67 271.54h-55.16l-.69 2.77h55.23z"/><path id="polygon328" style="fill:url(#Crack_Highlight_Gradient-10)" transform="translate(-111.25 -111)" d="M351.52 242.04h6.04l.54-2.64h-6.04z"/><path id="polygon330" style="fill:url(#Crack_Highlight_Gradient-11)" transform="translate(-111.25 -111)" d="M421.28 258.02h6.09l.45-2.68h-6.08z"/><path id="polygon332" style="fill:url(#Crack_Highlight_Gradient-12)" transform="translate(-111.25 -111)" d="M569.56 236.76h24.1l.24-2.62h-24.08z"/><path id="polygon334" style="fill:url(#Crack_Highlight_Gradient-13)" transform="translate(-111.25 -111)" d="M652.97 252.67h18.22l.14-2.67h-18.2z"/><path id="polygon336" style="fill:url(#Crack_Highlight_Gradient-14)" transform="translate(-111.25 -111)" d="M912.89 234.14h-24.07l.14 2.62h24.11z"/><path id="polygon338" style="fill:url(#Crack_Highlight_Gradient-15)" transform="translate(-111.25 -111)" d="M931.14 236.76h18.09l-.22-2.62h-18.06z"/><path id="polygon340" style="fill:url(#Crack_Highlight_Gradient-16)" transform="translate(-111.25 -111)" d="m1042.33 258.02-.34-2.68h-6.09l.34 2.68z"/><path id="polygon342" style="fill:url(#Crack_Highlight_Gradient-17)" transform="translate(-111.25 -111)" d="M1076.54 242.04h54.38l-.45-2.64h-54.31z"/><path id="polygon344" style="fill:url(#Crack_Highlight_Gradient-18)" transform="translate(-111.25 -111)" d="m1038.26 274.31-.34-2.77h-30.64l.3 2.77z"/><path id="polygon346" style="fill:url(#Crack_Highlight_Gradient-19)" transform="translate(-111.25 -111)" d="m1062.81 274.31-.38-2.77h-18.37l.34 2.77z"/><path id="polygon348" style="fill:url(#Crack_Highlight_Gradient-20)" transform="translate(-111.25 -111)" d="m1136.44 274.31-.47-2.77h-55.15l.4 2.77z"/><path id="polygon350" style="fill:url(#Crack_Highlight_Gradient-21)" transform="translate(-111.25 -111)" d="m1210.08 274.31-.57-2.77h-55.16l.5 2.77z"/><path id="polygon352" style="fill:url(#Crack_Highlight_Gradient-22)" transform="translate(-111.25 -111)" d="M1338.94 274.31h55.23l-.82-2.77h-55.15z"/><path id="polygon354" style="fill:url(#Crack_Highlight_Gradient-23)" transform="translate(-111.25 -111)" d="m890.99 274.31-.15-2.77H860.2l.11 2.77z"/><path id="polygon356" style="fill:url(#Crack_Highlight_Gradient-24)" transform="translate(-111.25 -111)" d="m915.54 274.31-.19-2.77h-18.38l.16 2.77z"/><path id="polygon358" style="fill:url(#Crack_Highlight_Gradient-25)" transform="translate(-111.25 -111)" d="M768.28 271.54h-55.16l-.08 2.77h55.23z"/><path id="polygon360" style="fill:url(#Crack_Highlight_Gradient-26)" transform="translate(-111.25 -111)" d="m841.9 274.31-.08-2.77h-67.41l-.01 2.77z"/><path id="polygon362" style="fill:url(#Crack_Highlight_Gradient-27)" transform="translate(-111.25 -111)" d="m989.17 274.31-.28-2.77h-55.15l.21 2.77z"/><path id="polygon364" style="fill:url(#Crack_Highlight_Gradient-28)" transform="translate(-111.25 -111)" d="M584.43 271.54h-18.38l-.28 2.77h18.41z"/><path id="polygon366" style="fill:url(#Crack_Highlight_Gradient-29)" transform="translate(-111.25 -111)" d="M651.84 271.54h-61.28l-.25 2.77h61.37z"/><path id="polygon368" style="fill:url(#Crack_Highlight_Gradient-30)" transform="translate(-111.25 -111)" d="M694.74 271.54h-36.77l-.16 2.77h36.82z"/><path id="polygon370" style="fill:url(#Crack_Highlight_Gradient-31)" transform="translate(-111.25 -111)" d="M523.15 271.54h-30.64l-.38 2.77h30.68z"/><path id="polygon372" style="fill:url(#Crack_Highlight_Gradient-32)" transform="translate(-111.25 -111)" d="M547.66 271.54h-18.38l-.33 2.77h18.41z"/><path id="polygon374" style="fill:url(#Crack_Highlight_Gradient-33)" transform="translate(-111.25 -111)" d="M418.97 271.54h-18.38l-.5 2.77h18.41z"/><path id="polygon376" style="fill:url(#Crack_Highlight_Gradient-34)" transform="translate(-111.25 -111)" d="M455.74 271.54H425.1l-.47 2.77h30.68z"/><path id="polygon378" style="fill:url(#Crack_Highlight_Gradient-35)" transform="translate(-111.25 -111)" d="M345.43 271.54h-18.38l-.6 2.77h18.41z"/><path id="polygon380" style="fill:url(#Crack_Highlight_Gradient-36)" transform="translate(-111.25 -111)" d="M382.2 271.54h-30.64l-.56 2.77h30.68z"/><path id="polygon382" style="fill:url(#Crack_Highlight_Gradient-37)" transform="translate(-111.25 -111)" d="M998.94 195.52h17.72l-.3-2.52h-17.7z"/><path id="polygon384" style="fill:url(#Crack_Highlight_Gradient-38)" transform="translate(-111.25 -111)" d="M467.41 195.52h17.72l.37-2.52h-17.7z"/><path id="polygon386" style="fill:url(#Crack_Highlight_Gradient-39)" transform="translate(-111.25 -111)" d="M163.85 146.23h51.86l.68-2.4H164.6z"/><path id="polygon388" style="fill:url(#Crack_Highlight_Gradient-40)" transform="translate(-111.25 -111)" d="M284.85 146.23h23.05l.57-2.4h-23.02z"/><path id="polygon390" style="fill:url(#Crack_Highlight_Gradient-41)" transform="translate(-111.25 -111)" d="M330.71 173.04H301.5l-.58 2.47h29.23z"/><path id="polygon392" style="fill:url(#Crack_Highlight_Gradient-42)" transform="translate(-111.25 -111)" d="M259.98 175.51h35.09l.6-2.47h-35.05z"/><path id="polygon394" style="fill:url(#Crack_Highlight_Gradient-43)" transform="translate(-111.25 -111)" d="M382.8 146.23h23.04l.46-2.4h-23.02z"/><path id="polygon396" style="fill:url(#Crack_Highlight_Gradient-44)" transform="translate(-111.25 -111)" d="M457.7 146.23h17.28l.37-2.4h-17.26z"/><path id="polygon398" style="fill:url(#Crack_Highlight_Gradient-45)" transform="translate(-111.25 -111)" d="M561.67 143.83h-51.79l-.33 2.4h51.86z"/><path id="polygon400" style="fill:url(#Crack_Highlight_Gradient-46)" transform="translate(-111.25 -111)" d="M577.23 160.76h17.41l.22-2.43h-17.39z"/><path id="polygon402" style="fill:url(#Crack_Highlight_Gradient-47)" transform="translate(-111.25 -111)" d="M716.38 165.66h52.36l.01-2.45h-52.3z"/><path id="polygon404" style="fill:url(#Crack_Highlight_Gradient-48)" transform="translate(-111.25 -111)" d="M855.83 160.76h17.41l-.12-2.43h-17.39z"/><path id="polygon406" style="fill:url(#Crack_Highlight_Gradient-49)" transform="translate(-111.25 -111)" d="m907.27 148.64.15 2.41h17.33l-.18-2.41z"/><path id="polygon408" style="fill:url(#Crack_Highlight_Gradient-50)" transform="translate(-111.25 -111)" d="m1305.95 151.05-.64-2.41h-34.62l.61 2.41z"/><path id="polygon410" style="fill:url(#Crack_Highlight_Gradient-51)" transform="translate(-111.25 -111)" d="m1362.99 148.64.72 2.41h28.88l-.75-2.41z"/><path id="polygon412" style="fill:url(#Crack_Highlight_Gradient-52)" transform="translate(-111.25 -111)" d="m1185.94 129.55.49 2.36h28.6l-.53-2.36z"/><path id="polygon414" style="fill:url(#Crack_Highlight_Gradient-53)" transform="translate(-111.25 -111)" d="m1184.16 148.64.5 2.41h28.88l-.53-2.41z"/><path id="polygon416" style="fill:url(#Crack_Highlight_Gradient-54)" transform="translate(-111.25 -111)" d="m1218.78 148.64.54 2.41h34.65l-.58-2.41z"/><path id="polygon418" style="fill:url(#Crack_Highlight_Gradient-55)" transform="translate(-111.25 -111)" d="m879.67 173.04.13 2.47h11.69l-.14-2.47z"/><path id="polygon420" style="fill:url(#Crack_Highlight_Gradient-56)" transform="translate(-111.25 -111)" d="m1022.64 148.64.3 2.41h23.1l-.33-2.41z"/><path id="polygon422" style="fill:url(#Crack_Highlight_Gradient-57)" transform="translate(-111.25 -111)" d="m1048.03 165.66.33 2.45h17.48l-.36-2.45z"/><path id="polygon424" style="fill:url(#Crack_Highlight_Gradient-58)" transform="translate(-111.25 -111)" d="m1063.02 148.64.35 2.41h23.1l-.37-2.41z"/><path id="polygon426" style="fill:url(#Crack_Highlight_Gradient-59)" transform="translate(-111.25 -111)" d="M1078.61 175.51h-8.77l.36 2.48h8.78z"/><path id="polygon428" style="fill:url(#Crack_Highlight_Gradient-60)" transform="translate(-111.25 -111)" d="M1046.45 175.51h-8.78l.33 2.48h8.78z"/><path id="polygon430" style="fill:url(#Crack_Highlight_Gradient-61)" transform="translate(-111.25 -111)" d="M699.59 148.64h-69.22l-.18 2.41h69.31z"/><path id="polygon432" style="fill:url(#Crack_Highlight_Gradient-62)" transform="translate(-111.25 -111)" d="M768.81 151.05h69.31l-.08-2.41h-69.22z"/><path id="polygon434" style="fill:url(#Crack_Highlight_Gradient-63)" transform="translate(-111.25 -111)" d="m961.89 177.99.23 2.49h17.58l-.25-2.49z"/><path id="polygon436" style="fill:url(#Crack_Highlight_Gradient-64)" transform="translate(-111.25 -111)" d="M143.74 210.79h23.8l.77-2.56h-23.77z"/><path id="polygon438" style="fill:url(#Crack_Highlight_Gradient-65)" transform="translate(-111.25 -111)" d="M197.3 210.79h17.85l.71-2.56h-17.83z"/><path id="polygon440" style="fill:url(#Crack_Highlight_Gradient-66)" transform="translate(-111.25 -111)" d="M250.85 210.79h17.85l.64-2.56h-17.83z"/><path id="polygon442" style="fill:url(#Crack_Highlight_Gradient-67)" transform="translate(-111.25 -111)" d="m1226.73 210.79-.56-2.56h-29.72l.53 2.56z"/><path id="polygon444" style="fill:url(#Crack_Highlight_Gradient-68)" transform="translate(-111.25 -111)" d="m1268.39 210.79-.62-2.56h-35.66l.57 2.56z"/><path id="polygon446" style="fill:url(#Crack_Highlight_Gradient-69)" transform="translate(-111.25 -111)" d="M1143.43 210.79h23.8l-.49-2.56h-23.78z"/><path id="polygon448" style="fill:url(#Crack_Highlight_Gradient-70)" transform="translate(-111.25 -111)" d="M697.24 208.23h-71.32l-.19 2.56h71.41z"/><path id="polygon450" style="fill:url(#Crack_Highlight_Gradient-71)" transform="translate(-111.25 -111)" d="M768.34 258.02h6.09v-2.68h-6.08z"/><path id="polygon452" style="fill:url(#Crack_Highlight_Gradient-72)" transform="translate(-111.25 -111)" d="m929.21 210.79-.19-2.56h-17.83l.17 2.56z"/><path id="polygon454" style="fill:url(#Crack_Highlight_Gradient-73)" transform="translate(-111.25 -111)" d="m1074.27 226.3-.38-2.6h-17.97l.36 2.6z"/><path class="cls-15" id="polygon456" transform="translate(-111.25 -111)" d="m436.86 305.38-.91-2.31h-5.94l.93 2.32z"/><path class="cls-10" id="polygon458" transform="translate(-111.25 -111)" d="m203.4 292.58-1.53-2.33-3.49 12.82 1.54 2.32z"/><path class="cls-10" id="polygon460" transform="translate(-111.25 -111)" d="m1316 291.73 1.43-2.34 3.5 13.68-1.45 2.32z"/><path class="cls-14" id="polygon462" transform="translate(-111.25 -111)" d="m593.12 315.78-8.94-41.47h6.13l8.66 41.47z"/><path class="cls-16" id="polygon464" transform="translate(-111.25 -111)" d="m593.12 315.78-8.94-41.47h3.06l8.8 41.47z"/><path id="polygon466" transform="translate(-111.25 -111)" d="M790.57 300.66h-26.9l-.03 10.52h-10.86l-.1 10.71h-4.85l.06-3.78-.73-17.45h-26.63l-.25 10.52h-8.7l-.89-10.52h-47.81l-.54 10.52h-19.01l-1.72-10.52h-47.2l-.88 10.52h-18.41l-2.55-10.52h-57.44l-1.27 10.52h-6.91l-3.39-10.52h-125.4l-2.46 13.25-1.3-2.73h-3.7l-5.07-10.52h-55.97l-14.14 65.1 9.43 16h56.38l2.08-10.89h5.35l5.48 10.89h126.55l1.39-10.89h6.96l3.57 10.89h24.88l2.42-21.77h12.32l-.53 5.24 4.5 16.53h25.15l1-10.89h7.88l2.47 10.89h47.47l.71-10.89h19.43l1.51 10.89h48.1l.37-10.89h9l.71 10.89h26.73l.36-21.77h5.36l.25 10.88h10.7l.11 10.89h27.02l.15-17.06-.07-21.15h-10.94l.02-4.9h10.71l.14-17.43z"/><path id="polygon468" transform="translate(-111.25 -111)" d="M1173.58 311.18h-5.63l-1.89-10.52h-45.61l-4.23 10.52h-6.31l-1.61-10.52H945.95l-2.12 10.52h-7.87l-.75-10.52H807.78l-.73 17.45 1.06 63.65h128.47l2.11-10.89h8.05l.87 10.89h47.2l4.42-16.53-2.13-21.68h-6.18l-.49-4.9h22.12l4.81 43.11h24.88l5.38-16.43-3.22-26.68h23.14l.66 4.9-5.93 16.5 2.89 21.71h46.29l4.52-10.89h6.26l1.74 10.89h45.89l5.32-10.89h5.48l2.04 10.89h23.71l5.83-10.89h12.14l2.25 10.89h23.36l9.44-16-14.15-65.1h-23.34l-5.45 10.52h-12.22l-2.07-10.52h-23.69z"/><path class="cls-10" d="M203.37 195.81h47.15l5.06 10.52h3.69l5.39 11.29-2.7 14.46h-4.69l3.4 6.89-2.75 14.75h-10.84l-2.09 10.89h-47.78l-6.46-10.89z" id="path470"/><path class="cls-10" d="M272.02 195.81h57.91l4.42 11.38-2.21 14.31h-25.46l2.9 6.74-1.73 10.46h15.31l4.6 11-2.31 14.89h-58.7l-5.47-10.89z" id="path472"/><path class="cls-10" d="M340.68 195.81h47.15l3.39 10.52h6l3.56 11.29-4.46 36.1h-10.8l-1.4 10.89h-47.77l-4.52-10.89zm14.3 42.89h23.28l2.27-17.2h-23.09z" id="path474"/><path class="cls-10" d="M447.87 242.84h-24.61l-2.43 21.77h-14.92l-3.56-10.89 7-57.91h47.15l2.55 10.52h7.22l2.65 11.29-1.33 14.46h-2.3l1.67 6.89-2.35 25.64h-14.86l-3-10.89z" id="path476"/><path class="cls-10" d="M477.05 206.33h10.89l.88-10.52h36.31l1.72 10.52h8.39l1.74 11.29-2.17 36.1h-10.84l-.71 10.89h-36.8L484 253.72h-7.57l-2.59-11zm15.42 32.37h25.86l1.17-17.2h-25.65z" id="path478"/><path class="cls-10" d="m605.06 217.62-.82-11.29h-9.57l-.92-10.52h-36.28l-.53 10.52h-10.89l-2 36.4 1.65 11h8.87l1.51 10.89h36.79l.37-10.89h10.84l.37-14.73-.52-6.89h.71zm-16.7 21.08h-27.14l.83-17.2h27l.59 6.36h-.89z" id="path480"/><path class="cls-10" d="m647.53 217 .09-10.71h10.89v-10.52h14.64v14.43l-.09 11.26h-10.59l-.09 6.36v10.84h11v15l-.09 10.89h-14.84l-.11-10.89h-10.78l-.25-10.88H629.9l-.37 21.77h-14.92l-.7-10.89 1.38-57.91h14.72l.48 11.38-.16 9.85z" id="path482"/><path class="cls-10" d="m701.95 207.19.48-11.38h57.9l.64 14.43-1.22 11.26h-20.13l.35 10.26-.62 6.94h22.88l.66 15-1.31 10.89h-58.67z" id="path484"/><path class="cls-10" d="m769.75 207.19 1.38-11.38h47.15l.75 10.52h10.72l2.78 36.4-2.24 11h-8l-2.11 10.89h-47.71zm18.51 31.51h26.33l-1.17-17.2h-26.17z" id="path486"/><path class="cls-10" d="m837.45 207.19 2.3-11.38h36.3l1.42 14.43-2.8 11.26h-7l1.6 17.2h11l1.48 15-2.91 10.89h-36.8l-1.19-14.89 2.38-11h7.59l-1.46-17.2h-10.77z" id="path488"/><path class="cls-10" d="m883.89 207.19 2.91-11.38h57.95l1.89 14.43-3.72 11.26h-16.66l3.89 32.22-3.57 10.89h-14.92l-4.81-43.11h-21.5z" id="path490"/><path class="cls-10" d="m951.64 207.19 3.81-11.38h36.3l2.2 14.43-4.34 11.26h-4.82l2.54 17.2h11l2.3 15-4.52 10.89h-36.8l-2-14.89 4-11h5.44l-2.38-17.2h-10.82z" id="path492"/><path class="cls-10" d="m999.75 217.62 4.47-11.29h5l4.22-10.52h36.32l1.89 10.52h10.81l6.73 36.4-5.42 11h-3.59l-5.43 10.88h-36.8l-1.74-10.89h-10.93zm24.6 21.08h22l-3-17.2h-21.82z" id="path494"/><path class="cls-10" d="m1097.3 253.72-5.83 10.89h-14.92l-10.71-57.42 5.33-11.38h14.73l2.07 10.52h10.89l2.16 10.71h9.55l-2-9.85 5.9-11.38h14.64l12.59 57.91-6.43 10.89h-14.84l-2.25-10.89h-10.92l-2.2-10.88h-9.86z" id="path496"/><path class="cls-90" d="M203.37 195.81h47.15l-2 10.52h10.8l-2.77 14.58h-10.93l-1.35 6.95h10.91l-2.83 14.87h-11l-2.14 11h-48.46ZM213.63 217h28.82l1.34-6.8h-28.73zm-4.56 21.66h29.11l1.37-6.94h-29z" id="path498"/><path class="cls-90" d="M272.02 195.81h57.91l-2.28 14.43h-43.47l-1.22 6.8h21.79l-2.47 14.72h-22l-1.23 6.94h44.05l-2.38 15h-59.41z" id="path500"/><path class="cls-90" d="M340.68 195.81h47.15l-1.38 10.52h10.81l-4.57 36.4h-11l-1.43 11h-48.43zm8.46 42.89h29.12l3.77-28.46h-28.74z" id="path502"/><path class="cls-90" d="M448.99 231.76h-29l-2.5 22h-15.14l7-57.91h47.15l-1 10.52h10.75l-1.36 14.58h-10.88l-.69 6.95h10.92l-2.42 25.86h-15.07ZM421.64 217h28.82l.68-6.8h-28.73z" id="path504"/><path class="cls-90" d="M477.05 206.33h10.89l.88-10.52h36.31l-.69 10.52h10.8l-2.22 36.4h-11l-.73 11h-37.3l.91-11h-11.06zm12.16 32.37h29.12l1.93-28.46h-28.73z" id="path506"/><path class="cls-90" d="M546.05 206.33h10.89l.53-10.52h36.28l-.36 10.52h10.81l-.43 14.58H589l.38-10.67h-28.73l-1.4 28.46h29.11l.39-10.84h14.86l-.43 14.87h-11l-.37 11h-37.3l.56-11H544Z" id="path508"/><path class="cls-90" d="m647.53 217 .09-10.71h10.89v-10.52h14.64v14.43h-10.74v10.67h-11v6.95h11v10.84h11v15h-15v-11h-11.1l.09-11h-18l-.37 22h-15.12l1.38-57.91h14.72l-.36 21.25Z" id="path510"/><path class="cls-90" d="M702.43 195.81h57.9l.64 14.43H717.5l.16 6.8h21.8l.51 14.72h-22l.17 6.94h44.05l.66 15h-59.44z" id="path512"/><path class="cls-90" d="M771.08 195.81h47.15l.75 10.52h10.77l2.78 36.4h-11l.78 11h-48.38zm17.13 42.89h29.11l-2-28.46h-28.7z" id="path514"/><path class="cls-90" d="M839.75 195.81h36.3l1.42 14.43h-10.83l2.66 28.46h11l1.48 15h-37.33l-1.22-15h11l-2.46-28.46h-10.86z" id="path516"/><path class="cls-90" d="M886.8 195.81h57.95l1.89 14.43h-21.79l5.25 43.48h-15.13l-4.94-43.48h-21.74z" id="path518"/><path class="cls-90" d="M955.45 195.81h36.3l2.2 14.43h-10.8l4.2 28.46h11l2.3 15h-37.31l-2-15h11.06l-4-28.46h-10.91z" id="path520"/><path class="cls-90" d="M1004.18 206.33h10.89l-1.72-10.52h36.32l1.89 10.52h10.81l6.73 36.4h-11l2 11h-37.35l-1.79-11h-11.08zm20.13 32.37h29.11l-5.07-28.46h-28.73z" id="path522"/><path class="cls-90" d="M1097.75 220.91h-7l6.46 32.81h-15.12l-11-57.91h14.73l2.07 10.52h10.89l2.16 10.71h10.86l2.24 10.82h7.06l-6.75-32.05h14.64l12.59 57.91h-15l-2.32-11h-11.07l-2.25-11h-11z" id="path524"/><path class="cls-91" id="polygon526" transform="translate(-111.25 -111)" d="m355.04 321.24.26-1.3h-28.72l-.27 1.3z"/><path class="cls-91" id="polygon528" transform="translate(-111.25 -111)" d="m350.8 342.76.26-1.33h-29l-.28 1.33z"/><path class="cls-91" id="polygon530" transform="translate(-111.25 -111)" d="M363.86 352.38h-10.98l-.27 1.35h10.99z"/><path class="cls-91" id="polygon532" transform="translate(-111.25 -111)" d="M350.73 363.36h-48.4l-.29 1.36h48.43z"/><path class="cls-91" id="polygon534" transform="translate(-111.25 -111)" d="M368 330.59h-10.87l-.26 1.32h10.88z"/><path class="cls-91" id="polygon536" transform="translate(-111.25 -111)" d="M413.77 341.43h-21.94l-.24 1.33h21.96z"/><path class="cls-91" id="polygon538" transform="translate(-111.25 -111)" d="M439.1 319.94h-43.44l-.23 1.3h43.47z"/><path class="cls-91" id="polygon540" transform="translate(-111.25 -111)" d="M432.25 363.36h-59.44l-.25 1.36h59.48z"/><path class="cls-91" id="polygon542" transform="translate(-111.25 -111)" d="M491.69 363.36h-48.4l-.21 1.36h48.43z"/><path class="cls-91" id="polygon544" transform="translate(-111.25 -111)" d="m493.28 321.24.17-1.3h-28.71l-.2 1.3z"/><path class="cls-91" id="polygon546" transform="translate(-111.25 -111)" d="M504.1 352.38h-10.98l-.18 1.35h11z"/><path class="cls-91" id="polygon548" transform="translate(-111.25 -111)" d="m562.39 321.24.13-1.3h-28.71l-.15 1.3z"/><path class="cls-91" id="polygon550" transform="translate(-111.25 -111)" d="M531.22 342.76h29.02l.13-1.33h-29z"/><path class="cls-91" id="polygon552" transform="translate(-111.25 -111)" d="M528.88 363.36h-15.12l-.16 1.36h15.12z"/><path class="cls-91" id="polygon554" transform="translate(-111.25 -111)" d="M573.2 363.36h-15.03l-.14 1.36h15.04z"/><path class="cls-91" id="polygon556" transform="translate(-111.25 -111)" d="M576.26 330.59h-10.87l-.13 1.32h10.88z"/><path class="cls-91" id="polygon558" transform="translate(-111.25 -111)" d="m631.51 321.24.09-1.3h-28.71l-.11 1.3z"/><path class="cls-91" id="polygon560" transform="translate(-111.25 -111)" d="M585.09 353.73h11.07l.11-1.35h-11.06z"/><path class="cls-91" id="polygon562" transform="translate(-111.25 -111)" d="M644.35 352.38h-10.98l-.09 1.35h10.99z"/><path class="cls-91" id="polygon564" transform="translate(-111.25 -111)" d="M632.64 363.36h-37.28l-.11 1.36h37.3z"/><path class="cls-91" id="polygon566" transform="translate(-111.25 -111)" d="M671.9 321.24h28.73l.05-1.3h-28.71z"/><path class="cls-91" id="polygon568" transform="translate(-111.25 -111)" d="M655.25 353.73h11.08l.07-1.35h-11.07z"/><path class="cls-91" id="polygon570" transform="translate(-111.25 -111)" d="M703.11 363.36h-37.27l-.07 1.36h37.3z"/><path class="cls-91" id="polygon572" transform="translate(-111.25 -111)" d="M714.47 352.38h-10.98l-.05 1.35h10.99z"/><path class="cls-91" id="polygon574" transform="translate(-111.25 -111)" d="M715.1 330.59h-14.8l-.05 1.32h14.81z"/><path class="cls-91" id="polygon576" transform="translate(-111.25 -111)" d="M740.3 363.36h-15.11l-.04 1.36h15.13z"/><path class="cls-91" id="polygon578" transform="translate(-111.25 -111)" d="M773.65 330.59h-10.96l-.01 1.32h10.97z"/><path class="cls-91" id="polygon580" transform="translate(-111.25 -111)" d="M740.65 342.76h18l.01-1.33h-17.98z"/><path class="cls-91" id="polygon582" transform="translate(-111.25 -111)" d="M784.49 319.94h-10.82l-.01 1.3h10.83z"/><path class="cls-91" id="polygon584" transform="translate(-111.25 -111)" d="M758.56 353.73h11.07l.01-1.35h-11.07z"/><path class="cls-91" id="polygon586" transform="translate(-111.25 -111)" d="M784.63 363.36H769.6l-.01 1.36h15.04z"/><path class="cls-91" id="polygon588" transform="translate(-111.25 -111)" d="M851.17 341.43h-21.94l.03 1.33h21.96z"/><path class="cls-91" id="polygon590" transform="translate(-111.25 -111)" d="M872.16 319.94h-43.44l.03 1.3h43.47z"/><path class="cls-91" id="polygon592" transform="translate(-111.25 -111)" d="M874.08 363.36h-59.44l.02 1.36h59.48z"/><path class="cls-91" id="polygon594" transform="translate(-111.25 -111)" d="M933.52 363.36h-48.41l.07 1.36h48.43z"/><path class="cls-91" id="polygon596" transform="translate(-111.25 -111)" d="m926.6 321.24-.09-1.3h-28.72l.08 1.3z"/><path class="cls-91" id="polygon598" transform="translate(-111.25 -111)" d="M943.72 352.38h-10.99l.1 1.35h10.99z"/><path class="cls-91" id="polygon600" transform="translate(-111.25 -111)" d="M992.87 363.36h-37.28l.11 1.36H993z"/><path class="cls-91" id="polygon602" transform="translate(-111.25 -111)" d="M952.16 321.24h10.91l-.11-1.3h-10.91z"/><path class="cls-91" id="polygon604" transform="translate(-111.25 -111)" d="M988.59 319.94h-10.82l.12 1.3h10.83z"/><path class="cls-91" id="polygon606" transform="translate(-111.25 -111)" d="M999.54 321.24h21.74l-.15-1.3h-21.72z"/><path class="cls-91" id="polygon608" transform="translate(-111.25 -111)" d="M1057.67 319.94h-21.72l.15 1.3h21.74z"/><path class="cls-91" id="polygon610" transform="translate(-111.25 -111)" d="M1041.18 363.36h-15.11l.15 1.36h15.13z"/><path class="cls-91" id="polygon612" transform="translate(-111.25 -111)" d="M1068.66 321.24h10.91l-.18-1.3h-10.91z"/><path class="cls-91" id="polygon614" transform="translate(-111.25 -111)" d="M1111.66 363.36h-37.28l.18 1.36h37.31z"/><path class="cls-91" id="polygon616" transform="translate(-111.25 -111)" d="M1105.02 319.94h-10.82l.2 1.3h10.82z"/><path class="cls-91" id="polygon618" transform="translate(-111.25 -111)" d="M1121.17 353.73h11.08l-.22-1.35h-11.07z"/><path class="cls-91" id="polygon620" transform="translate(-111.25 -111)" d="m1159.6 321.24-.23-1.3h-28.72l.22 1.3z"/><path class="cls-91" id="polygon622" transform="translate(-111.25 -111)" d="M1171.1 363.36h-37.28l.22 1.36h37.3z"/><path class="cls-91" id="polygon624" transform="translate(-111.25 -111)" d="M1180.1 352.38h-10.98l.24 1.35h10.99z"/><path class="cls-91" id="polygon626" transform="translate(-111.25 -111)" d="M1202.09 331.91h6.95l-.27-1.32h-6.94z"/><path class="cls-91" id="polygon628" transform="translate(-111.25 -111)" d="M1208.29 363.36h-15.12l.26 1.36h15.12z"/><path class="cls-91" id="polygon630" transform="translate(-111.25 -111)" d="M1224.48 353.73h11.07l-.28-1.35h-11.07z"/><path class="cls-91" id="polygon632" transform="translate(-111.25 -111)" d="M1211.21 342.76h11.02l-.28-1.33h-11.01z"/><path class="cls-91" id="polygon634" transform="translate(-111.25 -111)" d="M1252.61 363.36h-15.03l.29 1.36h15.04z"/></svg>